<mxfile host="Electron" agent="Mozilla/5.0 (Windows NT 10.0; Win64; x64) AppleWebKit/537.36 (KHTML, like Gecko) draw.io/28.2.5 Chrome/138.0.7204.251 Electron/37.6.1 Safari/537.36" version="28.2.5">
  <diagram name="Page-1" id="tjssph7CXTrsnyWLjRS-">
    <mxGraphModel dx="992" dy="626" grid="1" gridSize="10" guides="1" tooltips="1" connect="1" arrows="1" fold="1" page="1" pageScale="1" pageWidth="850" pageHeight="1100" math="0" shadow="0">
      <root>
        <mxCell id="0" />
        <mxCell id="1" parent="0" />
        <mxCell id="qauyZtlUgc-z2EqnUP3--27" value="" style="verticalLabelPosition=bottom;verticalAlign=top;html=1;shadow=0;dashed=0;strokeWidth=1;shape=mxgraph.android.phone2;" parent="1" vertex="1">
          <mxGeometry x="5" y="150" width="120" height="210" as="geometry" />
        </mxCell>
        <mxCell id="qauyZtlUgc-z2EqnUP3--28" value="" style="dashed=0;outlineConnect=0;html=1;align=center;labelPosition=center;verticalLabelPosition=bottom;verticalAlign=top;shape=mxgraph.weblogos.android;fillColor=#60a917;strokeColor=#2D7600;fontColor=#ffffff;" parent="1" vertex="1">
          <mxGeometry x="31.19999999999999" y="210" width="67.60000000000001" height="80" as="geometry" />
        </mxCell>
        <mxCell id="qauyZtlUgc-z2EqnUP3--34" value="" style="image;aspect=fixed;perimeter=ellipsePerimeter;html=1;align=center;shadow=0;dashed=0;spacingTop=3;image=img/lib/active_directory/generic_server.svg;" parent="1" vertex="1">
          <mxGeometry x="605" y="120" width="95.2" height="170" as="geometry" />
        </mxCell>
        <mxCell id="qauyZtlUgc-z2EqnUP3--36" value="&lt;i&gt;Ktor&lt;/i&gt; сервер" style="text;html=1;align=center;verticalAlign=middle;whiteSpace=wrap;rounded=0;" parent="1" vertex="1">
          <mxGeometry x="610" y="280" width="72.4" height="30" as="geometry" />
        </mxCell>
        <mxCell id="qauyZtlUgc-z2EqnUP3--37" value="&lt;i&gt;Android&lt;/i&gt; клијент" style="text;html=1;align=center;verticalAlign=middle;whiteSpace=wrap;rounded=0;" parent="1" vertex="1">
          <mxGeometry x="20" y="360" width="90" height="30" as="geometry" />
        </mxCell>
        <mxCell id="qauyZtlUgc-z2EqnUP3--39" value="" style="sketch=0;outlineConnect=0;dashed=0;verticalLabelPosition=bottom;verticalAlign=top;align=center;html=1;fontSize=12;fontStyle=0;aspect=fixed;pointerEvents=1;shape=mxgraph.aws4.rds_mysql_instance;fillColor=#ffcd28;strokeColor=#d79b00;gradientColor=#ffa500;" parent="1" vertex="1">
          <mxGeometry x="445" y="450" width="110" height="110" as="geometry" />
        </mxCell>
        <mxCell id="qauyZtlUgc-z2EqnUP3--43" value="MySQL база података" style="text;html=1;align=center;verticalAlign=middle;whiteSpace=wrap;rounded=0;" parent="1" vertex="1">
          <mxGeometry x="425" y="560" width="145" height="30" as="geometry" />
        </mxCell>
        <mxCell id="7_ly9iFLRyMm4nDbTeuA-5" value="" style="endArrow=classic;html=1;rounded=0;edgeStyle=orthogonalEdgeStyle;curved=1;exitX=1;exitY=0.5;exitDx=0;exitDy=0;entryX=0.535;entryY=-0.008;entryDx=0;entryDy=0;entryPerimeter=0;" parent="1" source="qauyZtlUgc-z2EqnUP3--34" target="qauyZtlUgc-z2EqnUP3--39" edge="1">
          <mxGeometry width="50" height="50" relative="1" as="geometry">
            <mxPoint x="595" y="230" as="sourcePoint" />
            <mxPoint x="515" y="390" as="targetPoint" />
            <Array as="points">
              <mxPoint x="745" y="205" />
              <mxPoint x="745" y="415" />
              <mxPoint x="504" y="415" />
            </Array>
          </mxGeometry>
        </mxCell>
        <mxCell id="7_ly9iFLRyMm4nDbTeuA-10" value="(4)&amp;nbsp;&lt;i&gt;сачувајТокенОсвежења(токенОсвежења)&lt;/i&gt;" style="edgeLabel;html=1;align=center;verticalAlign=middle;resizable=0;points=[];" parent="7_ly9iFLRyMm4nDbTeuA-5" vertex="1" connectable="0">
          <mxGeometry x="0.1957" y="11" relative="1" as="geometry">
            <mxPoint x="37" y="-56" as="offset" />
          </mxGeometry>
        </mxCell>
        <mxCell id="7_ly9iFLRyMm4nDbTeuA-11" value="" style="endArrow=classic;html=1;rounded=0;" parent="1" edge="1">
          <mxGeometry width="50" height="50" relative="1" as="geometry">
            <mxPoint x="125" y="178" as="sourcePoint" />
            <mxPoint x="605" y="167" as="targetPoint" />
          </mxGeometry>
        </mxCell>
        <mxCell id="7_ly9iFLRyMm4nDbTeuA-12" value="(1)&lt;i&gt; пријавиСе(мејл, лозинка)&lt;/i&gt;" style="edgeLabel;html=1;align=center;verticalAlign=middle;resizable=0;points=[];" parent="7_ly9iFLRyMm4nDbTeuA-11" vertex="1" connectable="0">
          <mxGeometry x="-0.0156" y="3" relative="1" as="geometry">
            <mxPoint as="offset" />
          </mxGeometry>
        </mxCell>
        <mxCell id="7_ly9iFLRyMm4nDbTeuA-13" value="" style="endArrow=classic;html=1;rounded=0;exitX=0;exitY=0.75;exitDx=0;exitDy=0;" parent="1" source="qauyZtlUgc-z2EqnUP3--34" edge="1">
          <mxGeometry width="50" height="50" relative="1" as="geometry">
            <mxPoint x="325" y="370" as="sourcePoint" />
            <mxPoint x="125" y="260" as="targetPoint" />
          </mxGeometry>
        </mxCell>
        <mxCell id="7_ly9iFLRyMm4nDbTeuA-14" value="(5) &lt;i&gt;токенПриступа, токенОсвежења&lt;/i&gt;" style="edgeLabel;html=1;align=center;verticalAlign=middle;resizable=0;points=[];" parent="7_ly9iFLRyMm4nDbTeuA-13" vertex="1" connectable="0">
          <mxGeometry x="0.024" y="3" relative="1" as="geometry">
            <mxPoint as="offset" />
          </mxGeometry>
        </mxCell>
        <mxCell id="7_ly9iFLRyMm4nDbTeuA-17" value="" style="curved=1;endArrow=classic;html=1;rounded=0;edgeStyle=orthogonalEdgeStyle;entryX=0.98;entryY=0.229;entryDx=0;entryDy=0;entryPerimeter=0;" parent="1" source="qauyZtlUgc-z2EqnUP3--34" target="qauyZtlUgc-z2EqnUP3--34" edge="1">
          <mxGeometry width="50" height="50" relative="1" as="geometry">
            <mxPoint x="615" y="80" as="sourcePoint" />
            <mxPoint x="725" y="120" as="targetPoint" />
            <Array as="points">
              <mxPoint x="615" y="70" />
              <mxPoint x="730" y="70" />
              <mxPoint x="730" y="159" />
            </Array>
          </mxGeometry>
        </mxCell>
        <mxCell id="7_ly9iFLRyMm4nDbTeuA-23" value="(3) &lt;i&gt;генеришиТокене(): токенПриступа, токенОсвежења&lt;/i&gt;" style="edgeLabel;html=1;align=center;verticalAlign=middle;resizable=0;points=[];" parent="7_ly9iFLRyMm4nDbTeuA-17" vertex="1" connectable="0">
          <mxGeometry x="-0.0636" relative="1" as="geometry">
            <mxPoint as="offset" />
          </mxGeometry>
        </mxCell>
        <mxCell id="7_ly9iFLRyMm4nDbTeuA-24" value="" style="curved=1;endArrow=classic;html=1;rounded=0;exitX=0.991;exitY=0.71;exitDx=0;exitDy=0;exitPerimeter=0;entryX=0.964;entryY=0.983;entryDx=0;entryDy=0;entryPerimeter=0;" parent="1" source="qauyZtlUgc-z2EqnUP3--27" target="qauyZtlUgc-z2EqnUP3--27" edge="1">
          <mxGeometry width="50" height="50" relative="1" as="geometry">
            <mxPoint x="189.44000000000005" y="320.0000000000001" as="sourcePoint" />
            <mxPoint x="140" y="348.6100000000001" as="targetPoint" />
            <Array as="points">
              <mxPoint x="210" y="300" />
              <mxPoint x="260" y="340" />
              <mxPoint x="250" y="390" />
              <mxPoint x="230" y="410" />
              <mxPoint x="200" y="410" />
              <mxPoint x="150" y="390" />
            </Array>
          </mxGeometry>
        </mxCell>
        <mxCell id="7_ly9iFLRyMm4nDbTeuA-26" value="(6) &lt;i&gt;сачувајТокене(токенПриступа, токенОсвежења)&lt;/i&gt;" style="edgeLabel;html=1;align=center;verticalAlign=middle;resizable=0;points=[];" parent="7_ly9iFLRyMm4nDbTeuA-24" vertex="1" connectable="0">
          <mxGeometry x="-0.0172" y="2" relative="1" as="geometry">
            <mxPoint x="22" y="-3" as="offset" />
          </mxGeometry>
        </mxCell>
        <mxCell id="7_ly9iFLRyMm4nDbTeuA-27" value="" style="curved=1;endArrow=classic;html=1;rounded=0;exitX=0.015;exitY=0.848;exitDx=0;exitDy=0;exitPerimeter=0;entryX=0.264;entryY=-0.005;entryDx=0;entryDy=0;entryPerimeter=0;" parent="1" source="qauyZtlUgc-z2EqnUP3--34" target="qauyZtlUgc-z2EqnUP3--39" edge="1">
          <mxGeometry width="50" height="50" relative="1" as="geometry">
            <mxPoint x="510" y="330" as="sourcePoint" />
            <mxPoint x="450" y="440" as="targetPoint" />
            <Array as="points">
              <mxPoint x="460" y="360" />
            </Array>
          </mxGeometry>
        </mxCell>
        <mxCell id="7_ly9iFLRyMm4nDbTeuA-28" value="(2)&lt;i&gt;&amp;nbsp;верификујКреденцијале(мејл, лозинка)&lt;/i&gt;&lt;i&gt;&lt;/i&gt;" style="edgeLabel;html=1;align=center;verticalAlign=middle;resizable=0;points=[];" parent="7_ly9iFLRyMm4nDbTeuA-27" vertex="1" connectable="0">
          <mxGeometry x="-0.0879" y="13" relative="1" as="geometry">
            <mxPoint x="18" y="-11" as="offset" />
          </mxGeometry>
        </mxCell>
        <mxCell id="iLJ1Fh5zyO8JFfnYmev2-2" value="&lt;u&gt;Генерисање JWT токена приликом пријаве&lt;/u&gt;" style="text;strokeColor=none;fillColor=none;html=1;fontSize=24;fontStyle=1;verticalAlign=middle;align=center;" vertex="1" parent="1">
          <mxGeometry x="152.4" y="10" width="530" height="40" as="geometry" />
        </mxCell>
        <mxCell id="iLJ1Fh5zyO8JFfnYmev2-6" value="" style="shape=image;verticalLabelPosition=bottom;verticalAlign=top;imageAspect=0;aspect=fixed;image=data:image/png,iVBORw0KGgoAAAANSUhEUgAAASwAAAEsCAYAAAB5fY51AAAAAXNSR0IArs4c6QAAAARnQU1BAACxjwv8YQUAAAAJcEhZcwAADsMAAA7DAcdvqGQAAGRoSURBVHhe7Z13fBTl9oefmdndLGkkQBCCShEB6b1KE0GKBZFr+dlF7F6x4LVdRS/YEMGr2LDr9eq1oVRBkKC00BEQEMFGhySQwmZ3Zt7fH7OTbIYACSTZCXkfPgEye3ayO/PuN+ec95z3BYlEIpFIJBKJRCKRSCQSiUQikUgkEolEIpFIJBKJRCKRSCQSiUQikUgkEolEIpFIJBKJRCKRSCQSiUQikUgkEolEIpFIJBKJRCKRSCQSiUQikUgkEolEIpFIJBKJRCKRSCQSiUQikUgkEolEIpFUMhTnAUnVxefzMWzYMHw+n/OhqOD1evlz+2/MmT/P+ZBEIqnq1K1bl7y8vM5CiAzTNE0hhC6ECAghDoe/coUQeUKIfCFEMPxvIOL7UMRX0GET+ZV/jHMEhRD5oVBIF0KImTNnZgBnOV+rpGqiOg9Iqja6ro80TTPZMAxF13VN1/UYXdf94a9YXder6bru03XdG/43JuJ7T8SX12ET+eU7xjm8uq77QqGQBpCfn58MDHa+TknVRAqWpAgej0eoqoqmaVH98nq9AMTExACEnK9TUjWRgiVxErT/oyhK1L4c7HEekFRNpGBJnGjOAy4g4DwgqZpIwZI4Ec4DLsB0HpBUTaRgSQrIz88HMJzHXUA15wFJ1UQKlqQIuq67McEd7zwgqZpIwZI4KUi6uwiP84CkaiIFS+LEjYIlx6kE5ECQFIMbQ0LpYUlACpakGPKdB1yAG0stJFFAClZFc8/t8ODfnUfdhBs9LFcyiXYMp47zsKQckYJVUXi9MHkCjH+6DY8/Oo6e3a5y2/UPBoPouu5GD8t1dVjXUJd7aNPuY/p9OIZzHgNqOm0kkspJ6xaQPl9F5Iwl8y9B4IBgyxpB9eRHnabRJD4+noyMjBuFEMJarCF6hEIhIazVGgRwg/O1RpMGeNnHcC3E1ZmHuVIIbhDf0y/QFF8tp62kbHHVb/hTkntuhx+/a0PbdivJynoEVYXDh+HsRvDK86Pdlp/xeDxunCV0VTHru/Ty1SI+3cBI0lDJJ0Afzoj5kYvXDKdOJ6e9pOyQglVeVE+GD6coTHruSWA1ublt0TSrq1dVIesQXHNFdW64+nOXLaTouvDLTdfnWVrShzMeCRBop4V/12ho5BMgiZh6nzFw4Wt0eFBBkTOb5YAUrPKgX29Y/n0SV1++kaxDj2OaCpoGItympyjWV3YuvDDuYlq36OI8RbTQdV0K1lEYTC3+Qbu+IYJPaKgKgIKCQKChYSIIEvTfRqvnVjPov52JlyFiGSMFq6x57EGY9nkbTq/3Mwezm6KqlkclRKFQCWEdMwxISlJ5dWKaomrtnKeKBh6PRwpWMcShMJFuAJNFhFAR8X8VBQXIJ0Abag6fy5Cf76RhY+e5JCeOFKyyomF9+HYq/Oux+9D1ReTn1ykIAW2xsrFFS9MgOwd6dPWJCePec0OTr67rrsoXVatWDSDqi8y/T1eaUPPfAULnqGGBsuTJIlLArBAxRDU8tV6h9y/T6PVqDVQZIpYBUrDKgiuHw5LvGtO/73qyDk1AiLiCEND2qpzYx1QVDmbD3be15srh/3OaVSTBYBCX5rBinAcqkjtpyGU07RsgcLuGeoRY2SjhP3aIKKwQkQtpdPsqLk7rTVIz53MkpUMK1slg11Z9MOV24hM3cTC7BZpW6EEVJ1SRRNoEQzBh3BDOqNfKaVZRaJqG22bkwkRNsNoQy9N0PkMn9J2G6rFF6Vg4Q8QAAc4kodtchqwdwzlyFvEkkIJ1onTuCEvnx3DHre+Tl/cyuq4dkVg/HpH5rPx8qFtH4bVJy4FUp2kVJyrjVEHhffqQiO8DHUONDPuOh2Vr4UEjhKEIhO8Juiz9kf7/aoC1Zr2kdERlIFR67hgJ301rR4vmS8jKug5F0Yok1ktDZD7rYDYMGRTDYw8+5YZEc1XnVdrThtqPBgj18YRDvON5V5EoDm8LKyGv9qDeY8u5ZOlw6pzpfI7k2EjBKg2npVi1Vf8efzOwksOH22GFURalFSubyHzWoUPw0P0jGNx/jNNMUnEMpw630apGkOCYY+WtSkKkaGloBKyarS6f0f/3t+k0JO6EB07VQwpWSenZDX6Ym8g1Vy0nO+d1hCisrSqL8WafxzTB44FJ4+/HH1fPaVYB6M4DLqBCx2kDvLxM9+qC0GbAYwnVyd1jW+wEAk9BzZbBTbT4ehGDPmhDrPMpkmKo0IFQGVFUDZ5+AmZNHc7p9TaQldUBVdVKnFgvKZGhodW6E8eUScuARKdpeRHID3L48OF8AGHn4qKEGr6uMX4/Corf+Xh58i69qEPii/kYNQtLGMqGYhLyWhtqXrOQi3bcScMLnPaSokjBOhYN6yNmfRHHw6PHY5qfkZ9/epmEgEcjMgmfdQiuuaoe99w+voL7Dd24pVaFrek+hnPowxm3Bgjc5EFTTiYUPBrOhHy4Ziv1FXrPDtdsxTmeIgkjBetoDB8KS75LpH/fbWRl3V/g/ZSlV1UcSrhuS1EgNxfGPDqS1i1GOM3KETeGhBXyAe5MPA/TTtMJTbDyVoWhXFljBZlFa7byCXAhjW5bwpBVvUmqMJGuTEjBcuKPgykvw0dv30R84gYOZtdG05QyDwGPhe1lhUIQF6fw7uvP4vVWVF+aGwtHy70GoAYqH9I31oe23ETEWUJV/mFxZIioohIgoJxNUpPvGLLpWVr2ddpXdaRgRdK6BSycVoubb3yCQGAKum6FgKWprSoLIvNZubnQvl0yk56dVoXvV7lf+DfpojSh5j8DhNoW13pTnkT+nHDNFiai3j/oOO9H+j/SAG9FpgRcTVX9ABzJPbdD2rfJtG23haysMSiKesK1VWVBkXxWFtw6oitXDq+Iheyi8GaPS7mNU0XVGEE9LqPptUGCD2mo5ZK3KgnFJOSVHtQbt4SL8oZT5wynfVWk3AZCpaF6MnzxUQwTn52J1/snubnJpWqvKW/sfJbVuvMWDet3dppUAcotJGxtxvAi59YVhCZQ4O1E757boqWEa7byCVCLar7PGLjlbTp9qqCU27WoDFRtwercETYurc0lFy7iYPYgdL2waZkKDAGPRqSXlZ8Pp52mMOWVd4Bkp2mZYJoEAvnln7gpBT6vF1S1XHoJFRQm00NLpNqsIEatsi5hOFEKvbui62zdRIvLN3Hh7gZ4z3Y8pcpQtQXr998hI/NqdKMDhCvN3eBVRRKZz8rOgX79WvD0E+86zU5xysWrmEhbpQf1/hUg0MaeqYtGKHg0IkNEExMw2Elejd/RH3LaVhWqtmDt2QdXj5jD4cOWIJhmoUC4DdvTOpQFo+66mH69y0u03JjgLXMVGUwt7qFlv3DeynViRbgqXkHBRODHy25yuYzvhUBMddpWFaq2YAGs27CBR598lIQE4UqhIiKPpYRbd1RV4bWXrua0lPOcpmVA1BfLK4YyLbVogJe36ZUCvGtdXXcJVSQiorTibhaTgTkT+LaIURVCChbAq1Oe58up80hKFBiGu72swtYdL69OnAmUdb9huYRfJ0mZrtH1Bt2oQ+IbAUKnV3QJQ0mxX5OBiQ8fz7Gaz9m9CrgQcOPORhWCFCwLnZvu7s8v2zZSrZq11robRSsyn5V1CIZdHMM9t//TaXaSuNHDKrPlhUdzNgNo1DNAYOiJLBlTERSKlYEfP4vYwUOsF8BAp21VQwqWzcFMuP2emzFNsyD57maU8K47Yx4dSeeONzkfPlGCwXxXjQm/34/Xo5XJUga9SWIsnc4IEZoRzXqrY2G3A5kIfGgc4jAjSBPAbcA+p31Vw1WDM+rMS1vKpFeeJjHRvQn4yFIHw4C4OJW3X3kGr7e20/REMAzDZW8YymJzjjgU3qRnNR/af0yMBLcJVSHW5TcxUfDyCOlsJvgT8KHTsioiBcvJI08+ybzv/6J6QuUIDXNzoWXL2rz64s9lEc5pmuayNwtlMXP5bzrShJpPBQj1dGMJAxGhoB4OBT/iZyazfR/QBjjstK+KSME6Ep2Rd3Vj1+4svN7K4WllZcH119TghqsfcJqVFsMo0/x2WXFSynINdbmJFsOCBEeV9yoMJ0pkKOjHyxYOcBvpAFc4basyUrCKY/vvf/HoUyOJq6YjhPvEKhK73EHX4dkx/6Jh/aucJqXklBoTTfExmV5xOqGXC1cPdReWWNkeFoQwuYUfyEWMBb532ldlTqnBWaa895/Peev9cSRVknxWfj7USlF57/XJJ7PrjktDwhN+TW/TW0mk2os6RqpbWm+OxHp7BiZefDzNKtLIWgk84bSs6kjBOhZ33PcUq9bOIy6ucuSzsnOgV89knn5iA5zYIuEuTbqfUJz6LC3pQb1hAQIj3V7CYOet5rCNMfycES5hKNOC2VMBKVjHIhQyuf3eqzh8+JCrW3ciPa1Dh2DUXdUZOuQlp9nxEAgCgYCrihLDm7uWWmUGU4t/0K5LiOBbGqqCK/NWha03MWjs5hC3ssQErgP2O+0lUrCOT/qKfYx7djgJCVY+y80o4dYdUHhp/M2cUe9ENjUIOQ+4gFLNftZA5VXO1YApApKUUmyAWtHYr0tB5W4W8xuhF4EZTjuJhRSskvD8v+fy5dRvK02pQ34+nHk6THpuyglUiZ9Q+FXOlGqcvkkXtT5JKwOEWlWW1puXWM/n7N4HjHbaSgop1UCo0tx0921s3Z5TuVp3hp7Bg38v7dLKbsyblHhjjNGczWU0vSdAoLXbV2Gw8lZeVrCLe1mTD/Rx2kqKUpqBXLU5mPkXo0bfiKq6U6ycqCpkZ8NjDw+gZ7cbnQ8fAzeOiRKFqZ2JZxyd+umEXtBQFQXrj9uwQ1QPGnno3MkiXSBuAzY6bSVFcePgdC8z537OC5NmUr26cH0CXlEsT9DnU3l14hSqJzd2mjpR1JMuKC8vjhumKii8Qx+fF+3fBobq1ryVCP8xMfHg5UGWkk7OR8B7TlvJkUjBKi2PPDmMhT9sJiG+coSGhw9Dy9YKLzz1pdPMiTANgHzn8Wiiqiqaph036f4q7WlBrakBQue4vfXGwCQGP1+w2W69ucNpKykeKVilJ5+7H7iErKwDlaJ1R9MgKwNuvLYVN1z9mtPMSTAUOuQ8FhUUS2wURUHTtGNuKnoNdbmN5v2CBM937yoMhSUMfrz8Tha3sAxggOwTLDlSsE6EdRu28MCjo4mrZomC28TKJvyhR1EgkA8Tn7uVpo0vdppF4vN6XffhMQzjqDs/N8XHRHo0EJizAa/b81ZWC47JHfxoZmDeBaxx2kqOjhSsE+W9/7zLW++vJCnRvfksKCwoDYUgIV7hzZe/VlTtHKdZBG5MZB11FdTX6Ukt4l/Px/DYJQxuw35NduvNU6xiJvtXAK86bSXHRgrWyXDHfRexfmNWJWvdQUwY97HTLIIU5wEXUOw4fZaW9OGMcQECAypL680C/mQMP+8HLj2ZHsmqSrEDQVJCQqFdjPrHdQQCh125RZiN/ZpUFQ4ehDtvbcvQIS84zcK4TrC0cH9OJIOpxf20aRQieKfdenMCHTzligiHgnbrzX5yuJGFADcCO532kuMjBetkmZc2necnTiYxHBq6NacVKaa6DpNfHMVpKcVtf37cEoKKxjCMIuM0DoWJdEv0oG4WUD0yP+QurBIGsFpv7mWR+I3QK8B0p6WkZEjBKgvGPv8YX06dSfUE988a2kvRpNbVePvVlUCdSLNgKPQLhAXOBWia54glb96nK02o+UGAUEHeyq2hoN168zob+YhdO2TrzckhBatsyOeOe+9k1+7DxMS4X7Ts1p0hg2rx2IPOUoe/3JxbuZOGXEbTKwMELnZ76421642XDeznAVb9BbQHAk57ScmRglVW7Nn3O/f841w8HqssoDLks7KzFR66fyj9ekf+1i9RG0wFEyLcevM8XRVB6CE13Hrj5ryVhsYhgtzEApGLeFLuenPySMEqSz6fuorJb7xO9er2Mi/u87KIEFPDAI8HXntpLP64mEiLiP+7gWyAyfQgFs9HQYzWbl49VGDVWnnCu96kk/MY8JbTUlJ6pGCVMcr9jz7AosWfVqrWnbMb+3j52QXhpWhKuxxNuWMYRt6ztKQjdVsECA3T0FxdzW5gEIOf6WxjMtv3A684bSUnhhSsMkaYhskd944mKyujUrTu2Lvu3Hx9F264+qE9u3e3sU1ElF6ziJhpzczM4LLDSTUepE3HEKEvNFS/m8XKbr3ZzSGu58ccoDHgjnanUwApWOXBug1/8vCY/sRVC7lOqCJRwjvuqCrkHlZ48tF/xbVr8zigoygoilLhoiWEQInI/aXmqbxEy9rAFwLR1G1CFYldwqBjMoKFZGB+CRx02klOnCMK8lyFPw48PtDdmAc+DqvW7KFxo7Po3KENhwOWKLgxEW8LkqqCqbPhocdjLuraTU9MTIw3TRNVVY8QkfLEFklVVck3dK4YcT19th82a1Ej2UAohJPabiKyhCGGGMazmtf4bQZwlQvzgcckSUkBVHRctbR/Ae72sB54Dd5b05A7xneg/fmKi9drKg6Tux4cwS/b1rl+lVKwQtdqcaxatEiZOGHCfwHDtCcOKgjbm7M3c53w/HgWzZ8fSuS0jfZ0oHvFymq9WcQOHmL9YeBeNxbhFoefeM6PHca4M9/R5nfY3uYfqc/1L+06+hWFu+5+JP44+O/mJtSovRrNE0sgz2Dn9tdYOvtVln67hY1LDAK5zme5j369L+br/32BYRRNZleQx1IiIj2/IcPW8MOSPl999dU1Q4cOnaTrusfj8ZS7l2Wf3zQMVE1jydKldO/WLTcV7e6VXBKqQ9wHQQxFddGQtUoYwETgRSEbnc58lb+ZYEtgq9PeTSQpKXSLH8C5yf08PWsObJIaU/d6nyruBCVuVdY6Lt3U/llhGg87nxdt3HP3nfS/Fh55czmBQEcAVAV8MeCNCRHK38Oevz5i/ZLnmP9ZFqvm42rxeuzBkfzr8TfIylLQNPeFhvbrEQL6Xzyf9BX9atSoofz0008/pqamdi/v0LBArMI/JzMzky6dO/PL1q0XNcA7fQkXDa5D3HT3CVbYI8TEj5+bmcvb7LjbrbOCSUoK/RIuoU+tIXRO6p1QOyb5X16Fv+UZ1NaF0EwMBcCvehi2ouvOdfqyes5zRBv3hoQde8cQ428AYbECCAYg+6CX/MDpnHb6Q1zwfxk899WvvLfmbR5+6wb6DPfjP+rSSdFj7PMfMu/7+a4udSgkCSAjI0PcdtttV5uGkReZfC+PJHzB+cPnHjVqFL9s3fo4MD1o7YnR2m2/XCPzVn78fMTPvM2Oz9wmVklKCpcl3szLjb7i23abO73YYsrki067ZENNX3JWrmHck6XrqboQHkBR0QAFrwIDU/5WpGXLLbhqEBTgj4N30s+ibqP15Af8qGFdjfQEIj84Hi/4YyGUH+DAngmsWfgdq9JWsmRWNpkuaYo/o57C0vnbSa5Rn2DQXUn4oh5WBukratoPjXv66Wsfefjh93VdV8ojNLTPp+s6Ho+H9997jxtuvHFjWKSMVDRWcsmrdYi7PYiBGzysyBIGHxobyKIL0w/kIpoCB5z2FU1DtTm9kwbTrUY/X9vELh1qxyS30hQxJs+gji5MhXAuUKFwJtj+V2ASq2msPbiOoRvbtAXWOs8fTaJ/94uj/fnw0uyLycmeima7Vw5swVLCm4eKsL+oeSHGDyDYv3s1G9MvZ9GM31kyS4+6eF05fCAfTJlJbq5SIMJl+OE/YYoKlkH6iiL5tsVLljzarWvXf5W1aDnzVps2baJTp06HcnJy6tjLBocFa0od4m52g2BF5q1UFIKY9GWaSCenJ7DIaV9R1FMb0T9pGP1qX6K2iG9Xp5Yv7iNTiD5BU1FCwkRgoqKiKFZoT9izdSKEiaKoBM0AV6zqMXeTsWqA0yaauDMkvOBKgBdRUI4aOinhGiLCU/KqYg0lQ4ecbMjJVkhIas+5F27lkSkZvJO+gHFf3snQOzVSmzjPVjF88vlsJr/xIklJ7i0oLWZMXH/ttS9kZmau93g8mKZZJvVZkSGmqmlkZ2dz/U03kZOTc3Exa5znOb6PItbrtne9Gc8a0sl5BVjstCxvWnu6cEutR/mw2Q/M7LCh01PNxk/vmdxje6wW+9chXe+bY5iKLixvUEVDUaxbq4Rr7IpHwRA6KT4/vZIHNQb8TotocrRXHT28Xnh/TXPqNtpAfqCoMJWE4sJGET6vPxYMPY/c7PfYsnopC76azarv9/FHxW0Hp6habbF8wSZatUwmN9dqj4l2aFjUwxKkrzhCtK688srk//73v5tNw0hRwt7h0Qf98SkQLNNE1TRG338/L7z44kTgvki7sIf1Qh3i7o+2h2WHgvbqoXPYxgUs/Blo7rQtDxQUWnk607vmRfSreVGtpgmth1RTRTNgRMAkRRdWGUpx4V5pMIVJNVVl+cHl5hU/d64fXsHDFZTunVQE3S+Ccf97nPzAk6UWq+KI/DCawnrHqgox1SwR2793J9t+upOl3y5m4dd72bnFeYayp3WLOqR9ux1N82Oa0c9nFRUsSF9xxAtRVI0XJ7xw16hRo/59sqGhM281depULr300s1AM6dtWLBeq0PcbdEWLApKGDT2kEsHvg7txOgBLHfalRWKqtFK7WiLVELj+Ob1a3g9r+QZ9AoJFEMYgAh7UCcmUJFEhouG0LloRZs3tpsbb3PaRYsTf2flxX2TYfgdyziY1RntiF/0J0dkGCNEoefl9Qk0zyGyD25k208Psnrhjyz4Erauinx22XLHyCeZPOFxsg5F38sqgWAB+Hw+ZdWqVc+1aNHiAdMwFFXTSv0BKchbhUsYdu7cSatWrQ5lZGScU9yywWHB+rgOcVdFS7DCvmDB3yoKl/AtM9l/D/Bvh/lJo6DQ2XceA2sNo13SuUrT+HM6xnm843WTpkEhTtOFoSio2EW0pbn+JUEIgYlBosfD+F/HGS/vecwH1nRttCnbd3qSKKqG+HhTDLXq5mLoVll7Gd8McHxACQuXALSw56V5ssnLns3vm39h2ZxpLJ65VNm4pKDupsz44qMvGHbxsKiLVgkFC6Bzt24pC+bN+61atWqxJyJWzv8PHTqUadOm3Qq8GWFaQFiwvqpD3NDoCVbRUPAl1jKK1TOAS8qqmt3n89GOngysNYweNS5IbhB31rV+TXTWTWVIwDSTzPBSOgpqgSelKpTLAjsKAl0YJGgeFmb+yLWbep4bzQmFSMr+3Z4MzbvDv+dch2m8X6Ef3sgPrO15aSp4fdaMY/bBHP7Yci/L5ixj1YKN/JRmECqD/sbTUqrzw9y1nHlGfQLhfsNoUArBAnjgvvtaj58wYZmu6357f4iSCJctUoZh4PF4ePqZZ3j0kUc+Ba502tqEBevrOsRdHA3BKipWXlawl87M2ScQjYAcp31p8BNPZ39v+tYYrPaocUGDBnENz47V1PsDJv2CplBNjLBEFYpUSa7zyVLkFwuCC1e0umu7uXFyEaMoUf7vvjTcMR6ueWAxB7O6oZZB/qrUCOuS2DcsUrxiqglU1cQ08/l988esWfgAC746qKz53t7i/cTo17s5X/9vNYZRtHerIt97UcEqNunu5Kuvvvpg6NCh19p5qON9mApCwXAJw8KFC+nTu09IIKody0sJC9bUOsRdEg3BIqKEIc9qvWEzwdbAT067kuAnnr4Jl3BezcF0Se7LGf66oxTEGF0osUHT9JiYR4R7x7u25YUhDBI9Go9vGr3tvYwXznI+Hg2OOzArCkXVoF3veEKhRpbvW/E3qEC/FcX6r6JYYiUEHM5VyMnWOJwbyxmNb2bY7ZlMmLZDvLfmK+6b3J/251v5sNIyL20j/371ARIjSh0qAddee+2N27Ztn16SUocieStNIzMzk5tHjBACccGxxCqCMnBnS48I/7FLGB4hnc0EJ5dWrOzm4vEN/sOcdlvqvNzio1evSL1qRWpM3VCuYUzMMczq+abhBUXRFE/BDJ8tUtEQqwJvWECvWoMaVtRM6PGo+CtxNJp3h8nzWpAf+CniTjmtokdxYaPd3xjjh7zcX9m5/SW2rP6NH79JY+msQ6Xqb0ybNY0e3S4kO6fi81kn4GEpqkb/Pn1azv5u7nIhhD/yA+bEGQpef/31fPDBB+8DNzhtnYQ9rP/WIe7KivSwnHmrj/iZa1m2AegA5DvtnaQo9eiVMIgBtS9Tzklo0+NMf53WqsINAUPpoAtTNTGtYO84hZzRxBQmXkUlM5TJsDUd39phbhvptKlo3HOF7hgPV937MznZzcp8drAsifxwWwes+RMV8PmtNiHThF2/r2Nt2mUsmb2LpbNyjyteTRtrpM36hcSkhgWtOxVFUcEySV9R4nV8xj39dItHHn54zdFWdbC/d7TeLAO6FjnRUQgL1od1iLumogTL2XqzhSzaMz0/F9EKsLZBK4YUpR4Dki6lV80hMW0Tu9Su60++zxTibl0oWr5pIMLlBzZuEygnIjxbmOTxcM/6kSu+OPRWJ6dNReOeKzYl/XSatP2Dw7mKFZK556UdE6fnZWP1NwpC+Ts5sOcn1iy8nVVpv7FiHuz9LfIMhVw5/Ew+mPI7ubmFglUR1+EkBEtRNWX+vO+e6dOnzz/s/JQtUkVCQVVlw4YNtG/fPjcYDDYproShOMKC9X4d4q6rCMGyxcr+V0OlL9NII+sKBeV/zpniiL49OiX17JbsjXtcU8TZeQYNdGFqYJUpnEwhZzQxhEGcpjFn32z91q2D/CUM4csNd1y55t1h0qyrEOJjqKAPaXkQGcbZ/Y1KWLxi/KCo2ezbOYdf1qxhwVdfsWTWhiP6G6e8PJibR0wlK8NbYaFhUcE6opfweNStW5cVK1Z8m5qaOsC5FI39fXZ2Nueeey7r1q07H5jnPMfRCAvWu3WIu6FiBMv621qFIYHnWMJDrP8WGGjb1FMbMaTGVfSsNdDfIr7dBbV9cZ10IW4ImkpqSJiKs2+vMglUJJGh6mEjl/NWNnw+S+z7h9OuIqnAuOMYdB8M8YmdCpZeqaxEvna7v1GJ6G/MPphAQtJldBnwLx6Zsp530mfw/PQWDL1To7a1kg533DeT5UsXExcHwfxCz8323iK9uPKh1D9g95693H///beDta5uZPLdXrX0qTFjxLp1614vjVhFUGKPr7QUBvYCq0XYIITAj58vWM9DrN8N/K2h2tzu24uZ2WFDs8eajL27Z3KPjFgtdmqWrj+aY5j1dCEUpZi+vcqK/dpNYZLsjWNI0hV3l+e9KAnuuJqTF0LzTrnkB2IrVThYUooLG0VBf6OOoR8gN/t2tm/4irmfwt4/nubLFx/mtLoQCkEgYK2jRVgICYtjWXlfRT2sEOkrTmh53PfeffeK62+44b92604xrTctAd35vGMR9rA+qkPc1WXpYUWGdqKgmVnDgxcw2MI2/ubR6Zp0fv/BtS//rnF8cyVB84wSiIcDJtV1YXqtu1B5w72SYBeRJno8zNo727h166B2pZ0lLUuif3VTm8Dbyy5BU6eW2QfQ7UQKRNH+xky83p/Zv7cOS6bVx1inccXf4KxGUL168eJVFsJVVLCCpK+I3FS1xCiqFvvTurUbW7RoUd8Wq23bttOpU8fDGRkZbYFSN2qWZWtOZH7KCIdtXuvio6CRRz4byeB11tMu9Z+H+55165xkk6/CfXuXGMKoAUIpq769yoCCwBQCjzVbKC5c3eqKfWLHZ067iiL6IWG/4ZBQ/UYMV7QqVQyRg1yLEJ3DuclkZXQnIbER3S7SmL4iSIeeKxhwyXT+8cgKvk8zMQxIiIfqCeFw07DyZaZZVmFjqTygSIRp5P3f//3f2ZmZmXtsD+v2kSPJyMh44ETE6mSxvSg73BOAgYGCgh8/PjSy0ZnL7zzIIqMv037pxLff7kzo89bAM299xxs0W2eE9HfyTfMmIURNFVXRFE/BArinulgBBQ1BQWFQJyZZaVOty+NOm4ok+oLV4TwQZh+oxMn2E8V+v/a/qmptHR8IQPVkGPc/heTUZ0hfcRHP/7sTFwz10L7HDO5/OJ+ZcwTBfEhKtATM57NEy/a+ioSfpRKwExYsgE2bNoVGjx79HCCeHz+eOfPnZQGvOu1KSYkGRmQ+yhYrHcOKvlHw4SMGP1nkM51t3MWP4hw+D1zAwk/G80tCOjlNWnu6DHyp+ZR7TEGboBANNcWjqo58VHn071UWLqlzbUugrvN4RRHdK5/aBN5NPwfYUPBaqppoObHDM12HxGRB2tR0Hh3WLeLzCBAPtOOMelcxsP91XDIkjlYtoF6qlegPBCEYLDyX/XW00LFoSJhJ+ooaTpPSoKAw9ulxz0144YVRGRkZ3YGVTpuSEg4J/1eHuL8dLSS0L4wSbqMxMdFQsWrGvQgMDnCYpexlKr8yi93mToxngZnAGiAXK6Tlq2araFO99f25hjFeUzSlKoR9x0MI6xdAjKqyM38XA1Y3eSpAzhNOu4ogunfiytFw5zPp5GR3cnWxaEVjC4hhQvUk+PeDz/LJ+KNtuaQBnTij3kV06dSSS4YMolcPL6edBjFeOJwP+eHC7KOJV1HBKrKm+0mgAinAHucDpSEsWF/WIe5SW7DsQM/ORxV6ViY+NJRw4nw3uXzHDr7lDzGfvb/vxJgOLAM+Lm65lHFnvsP1p994fpauf60pnlKvRnEqYxWRmiRoGretv+brWdn/Geq0qQiiezcmfVeNdr0yOJzrL/ggSYoKiH1NRg26i42LS9IxXx1/3Adc2L8dF/SrS++eHhrUB48KugmHDxf2LEZe70LB2kf6itqRJ4wmztUa7Fdsz+xpqHjRCmbbfyeLH9jF1/wuZrFnZy5iFXA9kFnkxA4uS7yZF1pMOSvXMFarqAlSqI7EEDqJHg+f7vw4OPq3q/0Or79CiN5dSW0Ck+d3JSFpEUZIJZwnkISxxco0raLTP7fmcXevFA5mlnR981jgNPxxXejRcQIXDkrl/D5Qvz4kJFheVzBYmPOyi1T7X3yI9BXVnSeLFmHBmlaHuAsD4R5oDxpaeGYvRIjtHGI+O5nG7ywlQ8/A/AR4KlxNf5yeKKsQ9Mu2K3zJ3uQ/Q8Ksbff3SdEqxK6t8ygKmaFMeq868/IAORU+Wxg9lWjbE06rdwGhkBpN3XQttsejqnA4Dxq3jOWO8duAkopJHrCdQO4nzEurx70PpSptetzFkGELeGZ8iA3hdeyTEiEuvJejVeTpuo0d87FaXGLw4g/vifALWbzEWvozQzRj+g+3s/KemezvnoEZA1wb7vk7rlgpKDzb5H3qxCR/EhSGFKujYF8PXQhq+pI5N3bAI9FweKInWH0u9RIKPWzNmlb4+64c2KLl8cDBLBh43WkMHnG706yE7BKmMZkflvTlkSdj6NBzGOdfNIdnJmxnyVKrXCIp0cp7uQgfKsnE7NYxWclenmOFOJ8ZmU2Z9uMoVn+2kIM1BaJXeKniJcXlpo7F6Lrj6Vvj3MezDf1STSn9ks9VDRMDvwo9kvo1AGo5Hy9vonNnklPh/dUjiY17EyM8iy4HybERprXnYigkuLVHB/7YuNppcoKoQBJNG3/D34Z157Mv17N5a2unUbSogcrfadr8K35fs47DeQLRCdhWFk2458cO4/XWXyQGTTMDFE0K1fExhUmMqrIt51dx8fq2HQPklOPGB0cSnTs09E64d+J/OZx75RHJX8mRRM4axsbB+qW/KXf2buhcOaAMOAPIBrKcD7iA2kDGydaJ2fiJ55uWa1IbxZ+1MWAa1aV3dXysqndrsiNO07hy5flrlwXntXXalSfRCQk79fOgeS5GSM+qRNihoaZCXi6069lA3PH84nLY5PJPl4oVwN6yEiuA8Y0+1JolnvViwNSlWJUQEe6ZJCwcF9e5ug2Q4LQrTypesJJToVWPW8jLjrW2/ShzL+HUxP4wqQocyoIr7ulG94tudppJjs8ttR7l0jpDJx7S9Ss8UqxKhRBWnb8hoG1idxSUvzltypOKF6zel0Kt2reg65ZY2V+EQx/J0YmsywoFYfRr/yY5NerL1lYmWnu68PdGY1JyDDFCRSviNUiKxy5psCveBYI8U6dVYlP6xV5qtdVVEBUvWP5YjZ2/xxKXAHEJVo2REFZ+BoeAlX2OpnJjh4aqaq3ckJKq8PCbk4CoL11bGVBUjWeavV8jVvVs0IUZqxxj44yqTBGBCouUIXQIt+fEaxp+VWFXIJNs/WAX5/PLk4pfjGv9YsE3U7xsXdeJULAacdWheg2Ii7eKGIVpLbmC7U0coweuKhIpWoEANG7lJRTqzbof3iyLmbNTmXFnvM0FKeePyTb0AZpy5PrzVZ3I62EvZ6ighkVKRaCwLedXZu//mhd/fVyM+3PU/t+NzU8CZTVjfVyiebfigWZUT36HFue2pOtAhY59oG4j8MZAKB/yA4XWSmQPHFF+6S7BFnJVEzw49EFWffeC00RicVnizbzYYsrN2YbxphpeIEaKVaFIWZ6Uac2DoRCjqvhUQcBQ+C33V747MJWlmd+THkgjQM4yYATwW0mKc8sSt9yxeKAnXm8HOg28l64Da9C2F9RvankSeshaLtgU4SA2/LILBMwtb6MCsd+3YYLfD39uFYxo35FQqELrYioD4dabGsne5J/t1ht7m4mqRqRAgb0Uj4lH0fApCh5VEDQVNudsJj1jHrP3f0l6cL4pEN8BbwNzj9eXWZ649Y71wx83gvbndaHrwAa07aWS2tCqQcoPFIqX4vS83Pp2ygn7Pes6JNWAaW/P4ZmbL7LXVpdY3sIn5yzzdk7qtCzX0NtV1VAwUqhMrHyxR9HwKAp+FbL1ENvythWKlL7goDCNxcD3wORwq1fUqQx37TS83jdo1bs/XS/w03WgJV7+2MKw0fJjCwWrKgmYnTQ2BcQnwIR7PmPq5MudZlWVB+u+wKhG91+cEdK/rkpiVdSTsuf2LAGP1VQ0RZBrKGzOXsfizLnM3veZ+ElPDwrEX8B1wGLnOd1AZbpzCUBTBaWDaN/vcbpeUJd2vRUatyrcvDT/sBUiVUXxslt3gvk6t/UcyR8b33OaVDW6+Prxn/bfdguayg+gFEwwnaqCdaxwz6+CqigEDJON2etZnDmX7w58w6rgwnxgCvAF8Gu4eNi1VNY7pwCt8XqHcnanrnQf3I8uA7zUbwrxiZbXFQqGSyXCxZansnBF5rOs1p2QcnffNsI0fnaaVhWSlBS+abvWkxpTd2G+aXazlzk+FSka7hmAgqZoeBXwq3AgFGB77hbmHZhG2oFp4idzxc/CNGYDi4AZQHiFR/dzqnx6vYqq3S+adbma7oMb0GVAHPWbKsQmWHsCBvKK5rw4BT2vSNGqngQfvXCAV0c3dnGrTbnyRuNZDKo98M1Duj7yVAsFi87s2SEfeBQ17ElBji7YkrOemXv/x8LMWcYmY9XO8EYgt4eX3qmUnBp3sBB7Wd5uNO8+ie6D69OuFzRuDXGJlnidqmGjncuy/x/jhyevTWPB5xVaiewGbqn1KI81GXv6IV3fqimemFNFrOxQD+w6KStxbod7maEA67JXkJ6Zxtz9X7LJWGWEE+YvAbvdkjg/GSr/XTw6CnCOgtJXnHnOpfQe2puuAz00amV5IHbYaG8pX5nDRvs1i/A+h2CVOgQDMLLHy/yx8e/Op5yq9PIP4Z22X58ZEtrPhtBjgfBOzJVzH0FnuKegoCoa1VSBR1HYG8xlQ85q5u39mrlZX4od5rYM4A3gB+C7smwYdwOV6+6dHLHALTRuP5BuA9vRdWBtzmoF1eLCq3rmRnheWH+5VcAiBQphCa4I73Foh8EHM+HPzfCf8TtZPK0pkOM8zanIZYk3c+3pd9/bOL7FhHhNVRQUDpsCXZjhWxv+26UC5gz3rGDPCvdiNev3UY5hsPrQUubt/Zq0rJn5282Nq4AVCspYgdjrPOephLvuVsWhAF04s/lUug85ja4XQNMOkFDd+rCHglavnuKysNEZ9onwdvdeH2geyNgHPy2CRTNgxTzY+1sQeAB4OfI0VYBGDdXmC3snDU7tV/sSpXVCR5K9fkwhCJigC8tTUSJaaaMtXJHhnl0n5VNUfKqCqijsD+ayPOsHFh6YwYKDM9lhbjsE3AhMLe0qq5WZ6N4ld1AfaEVqk+F07n8VfS710agV1KptiVZ+eJeZaIWNznBPwSrjiPGDosK+nfDLGljwFSyZJcjcuRJ4Ojw9vRbCOzdUTc4AWjRUm3fsX+PSf/RLuSS+WXwranr96EJw2FQwhAGICg8b7cXwrJ9pYob79ryK1RKjKlZz8Yac1czb9xVzsr4S+8SOlcAEYHP43lYZobIp/ztTiVBULU6YxrWc2bwf3YdcQPveCTTrZO3CrHkgL7v8w8ZIgbJ/69qelD/W8gAz9sLGdFg+DxbPyGDvbzPCG4K+G822iUrAhQ3V5hf1r3HpuV1rnNe0bWIXraY3DkUR5BkUhI1W4Fj2YePxwj1DKOzNz2TNoWW2J7Vnh7ltdnij4XeAA85zVjXK5k6cmijAMGo3eJzuQ06n+6AkmnVSCzwvO2wk7HkVPOsEL2lkuGcnziPDvX07LZFaNEOwZNYhMnceAO4Fvil8oqQUJNRTG/27f9Kwwb1qDarVoXp31Q4bg6ZCUFgLX6hlEDYWDfesOim/quFRCj2p9Kw0FuyfIeZlf30wS+zbB9wDzCpyIokUrBKSDDSgdoM76T7kJroPUmjWCZLDGyTnB6wGbWfYyHEErMCbMi3nPjLcA9i/2xYpO9xbHM5JbT/ZHZUlBcQDDeupje7qnzRsZL/alygt4ttRyxdXIF4hYSBKETbaAqUoCqYoXKbFq6j4NVHEk5qz9wvmZX9tZIl93wH/DN/b/c5zSiyOftUlRyMOuILaDXrQpudl9Lk0keadFWrUtjyhQF5hwp6wYClKOK7DuuTHC/dWzodlc2HtD5ns/e1N4Gfgy/AGEZLyww8Mbag2P7t9fPe+A2pf1qdTUk8l2RuHFhE2Uhg0FggYYYFyhns+RcGvKQRNhQPBTBZmzGL+gZmsyFmQtU/seBlYAcw81coPygspWCdPC6onP0KPYa3pMaQZzTt7qFXHekQPWYvsERE2RtZJqVphuLf2B1g0M0T69E0czNwIPBru7ZJEj9gUpd6kAUmXdu2XcmmTtoldfLV8cUrRsNHyvCyJKlzwzg73fju8i7UHlzFz3+f699lf/xog55fwvV3n/GGS4yMFq+zwAIkkpz5Ax36306V/Ei27Qb2G1jbw+QFrRdXYOMsD2/U7rF8Cy+YKVszLJHPnKODr8IJocuVQd6EB8fXURv37VB88vlfNIQ3aJnahrj8ZsDwvj6IQq0HQFPwR2M2yzO+Zf2AmS3LmmFli37/CpSWHqvis7UkjBav8qEn15E6069eK9l3up+Pg2oDCipmwaplg9bw0Dma+HV7GY5vzyRJX06Se2qh/1/jzRveN71i/U53LORjMYFHGtyzKmid+zJtjBsh5OxzGf+t8skTiWlLRGJrQt8k7Teb99WGzH8yhCX0Pp6I9GJUNQCRlS/VkH32G31934rKMxMc/C9G541683pfCiXxJOSA9rHIgRalHr4RBDKh9GW0Tu8Q0JPkq4HUgBghtJ/PxDTmrJ83b91V+uCDQeQqJW0ltAp37Q59LFRq1iqFW7X5o+ROBWgTUOez6/X42rdjNgi8MVs+zWqQkZYYUrDIiRanHgKRL6VVzCG0Tu3jr+pNvMIW4ShdKw4BpnBnpUfkUzfSp4g9VUXbvD+bmLs/6YcrCAzP+t+DgTLHDlNGh6zizOXQfAl0vgCbtOpGY/CiGfhqh4OmEQqcB3rClid+fice7E8hhz19ZrFn4OsvmTueHL00CFbpfwymJFKyToKHanO7Vz6NXzSGeTkk9+yd74zpoirggz6CbLkwNx/Q34Rqdo1Q5Zx/SA6+vPLh49sL9sxYsPTjf3GTI/SSigaJqiEZtoGM/6HpBMk07XEF8QlfgCg7nxmCYdg91RJ3dMctVcti381XWLPySZXPTWfuDYO9vkT9SUkKkYJWShmpz+te4lJ61BtZtEd+uTm1f3O26ENcHTcUXChcJqqgoinrMAsPINo1ilg0JHQgFPt2eu+Xf8w5M2z93/5d/bTZWh2yRk5Q9BSLVZ5hGlwENOfPsM0lIeptQqD75h5US95NGFgwXVxCsqPns2zmFX9a8zeJZe1k8Yxd7f5M3toQUc8UlTppp7emVPIietQbSOqFjz2Sv/y1TiLoBk3hdGAooJ9XCEdm64ViYTaiKkp+rhw6sy17z4Y8Zcx5JOzBN/KSnF3hokpPA64VWvaF9H+gyQKVh84eI8d+GadYm/7APXVdQ1UJhOpZQHY3iW65EuOUqh4x9+9i0/F4Wz/qG9Lmwc0uhveQISnHlqw4KCu18PTm/5sV0T+5fvUl8y1tiNaUlMDhgUqu81laK9LqICBxVFKpZO50Ecg3lmz9zf03/7sDU99IOzDqQri9AmLJsq8T446D9edB1IHTscza169+FP7YRhn4+gVx/gUd0MiJVHAVtWNa9JfxPeA0zgaHvIS93JptXfs/Sbz9n8YwAf2x0nqXKc5J34dRBUTVaqR0ZmPI3pXfNC5vWjz2rfQ2v5595Bk1DAiUay5AUDRutlpDIzQXyDDPnt9ztLy/K+Pbb2fu//DFdX2BI8SoGW6R6XxJDq27dqNuoIzH+R8jLTcbQo7PHZaSA2T9fVSGmmuWBZWXsY/uGp1g6+wfSpq6T4mVRznfF3SiqRk/fQPrWGEy7pHOV5gktb/Jr6ou6SWJQiPBCb2rYk7JCvWjsGFzU87J9LytX5gtvKR40Fbbl/Pqv5YcWjv0xc17w++yvCVSNRUaLp3oydL4QuvSH5h00zmj6T+Ax9JBWsJelc5WNihAqJ0U8r/D3tucVU81q3co9mMvPK69k/dIZLJ4p2OjKLQMrhAq+O9HHTzyd/b3pW2Mw/U67tF5qTN0xfpWOIUGrPMPUbDlSUCvMkyotkQJm5bys8DRGVfGrmAGTbTvzd21de3DZjI/+euWVZcF5zlOcunS/CIbcqNG885XUqP03NE8jQvktCATUgtFekZ5UaTiaeKmKNduoeQ6Tl72G3zf/wbI5T7N45jp+WV64zFEVwEV3q/ywReqC2pfRs+bAzqkxtc/1q9pNAZPmQVMo9hpF1uyeO0XqaBwpXqKgARfg8lW9F60KLuxTZVYD6DMcnv7sAfJyn0cPKWE1t8ItWwgqyb09Imwk7Hl5fdaMY86hTfy++VVWp6Wz4KuV/LJcP9XFq5LcudLjJ56+CZdwXs3B/i7JfVPO9Ne5AhinC8WXbxaWH9iXoLIJlZPImUYTkzhN44ENI/ni0FvrgXZVRbAUVUNc/Y8ruHXsfzmUqeDxuM+TKi3H87xUFfRQPn9ufYefl71E2tcHWD77AKFQ4aA4RajEd/FIkpQUusUPYHDKcDon9a6d4kt+w6OKtkFTOT3fNDx26FQey99GG/u9GMIgyaPx350fM/q3q3OAJsAup/0pTgyTvltPhz6Nycm2vJLKLlo2ke9DhAtVbS8yxg/eGEEo/yB7/tpO+pw7WTp7Cavmc6pU2Vf6O1hPbUTX+PPoU2uI0qZ6l0Fn+OuerylicMBQmoSEqdhrFJ2KImUTKVaxqsbPOZu5cGMLIUxjMDDbaV8lSG3iZ/L8n0hIaowesryQU5FI7yvS89I81lJG+YFt7PnrK9amzWfJ7DmsnqdX5v7GSvnJjejbi+uU1LN1LV9cX1OIR3ShxAXMwvIDm1NNoIpDCIGqWDVbV67uLVYFF94GvOm0q1L0Gd6fJz+ezuFcX4FXcsqOhbCbFZEaKCiXiPFblfZgsOevd1i/5F0WzVxD+vTDlU28Ks3ds/v2+qVcStvELrWTvXGfaYrokGdQTRemYg3FUzPcOxZ27srEINHjYeyWx3hz/7g/w9uXnXI5jFJz3+QHGX7Hc2RlcErks0qK0/MiPBqs/kaBoeeRsXcGa3+4jUUzM1n7A5Whv9G1d05BoYF6Dv1rXEq/lEuUZvGtutb0+m/Thehx2FTOMovZGEBVqPAaqWgSGQomejS+3j2Vu7dd+hvQDMh32ldFFFVLEG8sSadJ22bk5Z5a+awSY+e5iu1vNIHt7N+9il/WfMPiWR+xeIZrxct1d83u2+uXckli64S258d5vJ1MIe4ImkpiUOjY5Qc2VcGLKg5brExhEqOq7MzfxcVr2gSyxL7LgWlO+ypN4/Y1eXneL3i9yRghawPaqowzbCRiSzlVDZJ54EU2LV/E4lnzWTwjz03iFfVPu6JqtPP04PyaFysdknrFtkhoVzNB87wuEIPyDKuySAl7XFSxcO94WOGgwK+q3LLuMr7L+/JG4D2nnQQYeucD3P/S8+RkKwUV7lV9DEWGjc7+xmpxYJomudkLWb/kLn5a/BdLZmezdVVUd5uOyh2L6Nujd80LaRTb6MoEj/eeoMlZQSFq6sJU7cS5FKgjKQwFdRI9Hl7ZPoHndz2wDOgpNzk4BmP++xYDrhzBwawqGhoeh0gBO7K/MZesjE1s3/AJS2dPZMlsg60Vv15bhd+tyxJv5tYzHzqtQVzDm/ya0lM3lX75wvQZorD8gHCoJ4XqSCLzVgmaxtKs5Vz5c5edAtEkvOOO5Gj44+J5J302dRv1ID9QWP0ux1jxFCTrj+hvPEzuobn8sSWNiaOmsHFxhe2XWaHBvKJq1PSd5mtZ/ax5QWE+fUg3Bx02DZ8QCioaaji3YIuUFKuiFEwsCIFP0TgQyuWhzTccFojBUqyOjxIM5DB25P9hGDkFnoQcY0fHvjaqatV2CQGHcyH7YDVMcTEtOk2gdmqFpiAqVLCEaTAj47/KvmAgTlM8Vu9euH9PitTxsZLsIBDEqDBuyyi2mxufA9Y6bSVHIkwDNi7+g08mXUZCdVGQcI5MQkuKYn8elXDDuKJYcZnfD1vXw6KvuzufUp5UqGAB7DC35a88uHh+nGbVDkWu8CE5OpH1Vgkelf/t+pgvDr01HRjrtJUch7cem8OPM74hPgEMMyLxLCkxHi/8vAxCof85HypPKlywAJZmzH9ICHSwPAbJsYnMW8VpHn46tJl//nZrDnCb3CX6BHnmlpHs370DrxdMKVolRlEKy5G//QTgm6IG5UtUBGtGxn/3ZemBNZpitc/Y3oPk6Agh8CgqASPEP7fcIgLkdAbKbEPDBni5k4Y0xed8KLpUT4aRN0DTxmXri2fu3MdLo67F67MGn8xnlQzTtMLBPzfDxiUmUKGLrUVFsHaY21iXvWKuXwWBKfNWx8BOtJsYxGoKz219hFXBhW8DPzttS0sDvIzmbL6lF2sZNugVen9/FokzozUuiqVGIjw/9jzSF67h26kzePDvZ9O0sdPqxFjw+fd8PeV6EpMERthRlb88j449WxjjhxULIJA72WlS3kRNKW6o8cBZT58zfktGSFfteitJUSLrrZI8Hr6yWm++AwZwgn2CbYhlAPUYzJk1OlN7YCwxDYCbdUINdQwGMps0stoDq53PjQpn1IN5Mz7m9HpX4fMCCLJzZrNy9WfMmTuN2fP2s26D81klx+tVmDTva1p2vajqtu6UEBGuLPX54clrDRZ83gzY6jQrT6J2VxqqzfmiffrqeC2ubUiYBSUNEoviWm8uW9Mpf5/YcQ6w3Wl/NBQUOhHHMBrQj3rJTUiqn0i19wVGawMTaylDEy1cA3c+M0gjqyuwzHmuqHBGPfhx7v+oWfNvBatpapoVlni9ggP789i05RkWLvqQqTP+UlasNku9EceZzb28/sNOfDG1Clp3pGgVxfY8NQ9kZ8FVTX8nkNsMCDhNy5OoqcR2cyN/5P36gle1egJkHutI7NYbgMd+HmnuEzvalkSsFBR6k8Qk2rGaQeoiLhn+Dzqmd6T25lg8qwIEWoewmscVKBCrCDZHfuMC9hTsD2gXe+bmQlaWgi8mjs6dxvLQfb8wf8YGsXTucJ5+Anp2c57j6PyxMcSbjz+AP9ZqDJYciaJY1e/+WFg5HwK5qytarIimYAHMOzBthaZgCFl/VYQC7wqDBI/Gm79PYGFgxmhgk9PWJg6FwdRiEu2UTVzY8nuG/Ose2sxqQ82AQHyWT6BTECPFRChauAKOsLgVw0HngSiTV/A/e5xomiVepmmJ18FsH7rejLbtPuPh+3OY8eXnrPzhOZ5+oif9eltbfR2LqZM/YPZHE6ieZMpSh2KIvBbL5grgrsiHK4piR2tF0Uxrr33TceWekDBrRrbkVGWcrTcLM3/k2k0904A+Tts4FAZxGpdQ39uTuu3OJKGHgvaEwKhuYKJjFEiTUrBB2ZHXN/L4+cwQaWSd1C8yBYX777uX1998k5yck9xqzAoJJ5KSMopgsPiVQ+3wTQhLwAgLms8HMTFw+HA2f+24h7Qf1jBj9npmLwgVu2SwP07lzaWfckbjywgEFJnPisA0rWT7gT0wot0mDmae4zSpCIq5+xXHZmO1sfrQ8tdjNRWzis8WCmGFxbZY+VWr9ebxLbcK4P9suzgUrqEuH9KFrVzKZ/SfcA3nHDyThCU6xoQAgep2uFfoSR3Tm3Jy0m7FFVdewfgJE06/7ZZbhjgfO0HinQeKEDlubM9LCAgEICsLgsEEzjzjbUZct5wvPz7IukVzmPJyPYYOKep5BXJNJt17Oaq2ES3svUlPq/D9e7yweRUczJzlNKkooipYAsHKrIUvagpmVcxj2e+34F8EhtDxKQr5Xnh0863mdnPjtU3x7byThkyjF1u59IwPOX/KNZyz8jSqGUGM+4IEq4UwVEDxoBV4VAVea5GfelxO6iac3bgxEyZMOA1If2rs2G86d+t2rdPmBPA4DxSLLVz2v6pqfSkKBAIKB7M1DmZX4/R6/bn5+r/45IMDbF7+BR9O6c4NV1ve3KrvBM/d/gwx1UxUBXTduiQicuXOk7pElQ8lolh07scAUdvJNaqCBfDN3o8zcg1zq6aUbEyeCkQKsyGsuTpVgRhVpYbXQ8in8v2vb1Aze/767+n3dTqXaq/Qu8+FNFp4GtV+D2LcHCDQPoRQFax13G2RouSeVJmjoPDW22+Tmpr6tq7rdatVq6a+M2XKez6f72TDh9IPjkjxsr9U1fLAgkHIOgSBQA1SUoZx9eWLeGvyUn6cO4IvPuqFb7eXH6cfQPUIkmpY0/iEF7uzQ06qiHDZQq2pkHkA1i4OVnR1eyRRF6xNxiq25f6ywqtYHsap6GVFelJCWIUEhrA2y4jTNBI9KqYQrD+0jme2jhOPrjlPv2rnF3s/4Lz5fTjjiQQ8ewMEvs8n0FNHKEp4Zi+8FxBEUaQieXHii/Tq1aubruuDPR4Puq7TokUL9c033njBaVtKSi9YTmzREqKo5xUKwcFsyM7pQkrKW1xyYRpfffoO/ZNq8vhV8M44kz+3mmgeQUJ1a2E7IaweRPvDfCp7Xkp4djA2AX5aBJk7PweCTrOKIuqCBZB2YPrEWI1TqurdGe6Zwgg3eyvEaSqJHg0Fg7UH1zH+16e5clV3hm5ss/jlPY9ddHu2cWEN6n1/GPOWfAL3hxA1NFS08E5AkeFeOXBCn7qLLrqIUaNGnWWa5jxN0xQhBLZoXX/DDYNGjBjxovM5peDkBcvG6XkRkfcKBiE7xyqX6NRR5cYB8NZj85Ub2t7I3wc8x8cT8tiyxko+xydY4mV/oG3Pq0C0Tugyug8RXsjP0GH5PAG86zSpSMpt1JeGXv4hvNN2+q9B02wEhUvNVEbsxLkQAhMDUNAUjWqqwKMoHAgF2J67hXkHpjF3/5d5m43VMwRiOfA+sHcS7biHjg0CZKdrqCnKMWb3ygrHLKGRRlapBKJGjRosX74ivlGjhmmmYbRXNa2wNMM0UVWVzMzM7C6dO7f6ZevW353PPybWLOEXpKQMO+osYVkjwgKUVANG3b+El17rGW4yj1FU7QrRrMsw+lx6Ie16a5x+NlRPsjy1/MOW5wXW+lG2R1dZx7MtvopiTWBc3y5I5s56wH6naUXhiiupoPBty19GN44/6/nDplGwRlZlIFKg7D8AmqIQpykYQiHX0Fl9aCnz9n5NWtbMfb+ZP/8qEG8AH0autjCcOnzGQCVIcL4CfSoq0HMIlplGVuGmjiVg5syZDBo06HXTMG6NFKsC0TIMVE1jydKleT26dU8ViJLXeVW0YNkCY5rWzzIMuGBoD9JXOBPN1RWUx0Tjdr3pNrA+XQem0KiVQnyC9dxAXuEywwrWX5VRwEzT8iSXzYEHL1wDtHOaVCTlfPdLhkCw/NDCNVp4MqIyiJWVj7LEyU6cx6gq8eFw77BxmLSMRTy5eTQXrWjDtZt67nov44W2282NZwlEt/BmEQVilYrGC3QFjEVAb0tA3B9WPHDffQwaNOhvuq7frKhqgUgRvo9CCFRNQ9d1unXtGvvixBdPNp9VvtiiYotVXBy88vxzinqEhh8UiNFsXdWFD59uzJ29WnJrj1W8+TisXmhZ2GGj5q2cYaPtaXq9sHgWwFCnSUXjGmXo4usX+0mH7zJzDcNnb+PlJuE60pOy1qD3Kio+1fJQdudnsubQMpZkzGNu1pf6DnPb+8BcYAGwx3nOSL6lFwNo9EGAwLUetHIPAyNxeFglLhzt3K0bC+bNS/X7/RuB6ke7XwX5PNNE1TQuvvjif06bNq1kCw9aHtZUUlIuqRAPy8b2hAwDkpIEk155k3sfuoPjN++cCZzHmc2vpvuQ82jfW+XstpCSauWBQkHQQ5ZWqbi7b1GYltjm5cJtPQPs3FLNaVLRuOYq+Ynni5Yrnm8a33R0vmmghtfKiiZHipT1wfOrGj5VYAiFvfmZpGelsWD/DLEwe1bmPrHjB2Ah8FJJF9cbwzk8QZc7AgQmV7RYcYKC5fP5WLVqVfUWLVqsNw3j9MhQ0Ikzn7Vz5069Y8eOfXbt2rXIaXsElmB9Q0rKRRUqWER4QqYJCfEm19x8M598Xpqkc3Xgbmo36Ez3IZ3oPqgOzTpZa3xpHitsDIUKP4WKi8JGEZ79LAwHFwM9nGYVTZSvSlGeSJ2cMrLBHbuydF2LxpIzkQIVPmJV4KMSo6p4FOuj/WdgF2sPLmPB/hliXvbXwSyx7y9gGLDOccrj0pl4vueiZB/qfoFQrSR7xd6YExGs9959l+tvuOFRXdfHejyeo4qVjf24rut4PB5mzZplDh48+LTjJnCjLVh2Psvng8wM6HreYP7ccaKV3j1ITv2A3peeTqd+Xpq2V6hzpuV5mQbkB8KeV8R1PMY1LXcM0wprJz8Mn4z/CCiLIuCTIopX40h6+YdUe6vN9E26EGdSgSFhUU/KRIT3RPQoAr+mEjRhZ/4ulmV+z7d7v+DHvDkiQM674TzUT0CW85wlIQ6FVVxYowlJG4IYdeyG5IrGIVjHTbpfd911vP/++1eahvGhoqoeSnivHKGhGH3//fNeePHF/k67IliC9SUpKZdWuGDhCA0T4mHegt1cMLTZSTaIpwKtSE69nY79BtFjsI+W3ayw0fa8jFDhlvIV7XkV/MIO/+ybu8EfG3tEs8LdpgLefcnx+Xz80HJ3WrI3uZcevmgl+SCcCEeKlHUxqqkaHlUQNBV25u/ihwOz+X7/dH7Mm/NngJxpwBLg07LYsPRDunAN5zwTIPAPD1rYfyuf93ssSiNYZzduzLL09ITk5OQNpmmeoToS7cei0HO1CAQC9OnX7+/pS5a8XOSBSCzB+piUlKuiIlg4RCupBvxzzFrGPt+pLMYA4AcupnryebTr159zL25A214qNU8DbwyE8gs9r4oUL9u7WrkARp3/K1BGy7yeHOX4jk+McWe+c+u1p9/4+iFdpyzbdZzhnpWRMlFR8asqHhV0E37O2Ux6xjwWZc0T8wJf7xWmsQG4AfjTec6TYQT1eIvzBgcxZtg3IRpiRSkES1E1lqcv83Xo0GGPrutJJQkFnRTks8KlDps2bQp16tSpTk5OTobTFgoE6y1SUkZEVbAi0TTBoKF388OS8lgiuDH+uIl0HdSB9n1r07aXRv2m1vvWQxFhI4Uf37IWMBHe+TmhOrzxGHz49B3Aa06zaBCFu39svt8//QNDEILIXNKJE3kOZ99ekseDR4GtOb/y9m+vctWq87lwYwvjyZ13fv5d3pcthWk0BfqVtVg1xceLnOsRmO9TIFRlNNjKkbFj/0WHDh0u03W9+omIFWGPWUSUOjRr1sz7yssvp0G4jL94TijkLjNsr0YpyGcpvDrxZfxx5bEn31YCuRex4POmvHhnc0a0/yf3Dg7w1Rvw51aryj6hutXfqDiq7ClGXEtN+PmaCrkHIW0qwFKHUdQo3WgrZxRVI8asxpx2W2akxtQdnG+aKJSu8r2oJ1U4t6eiEquBqihk6ya/5f1C2oHppB2YRbq+YJcwjdfDSfPZ5b2S4o/09/Wg3qJ8Ah21KMwKOnF4WEdUuiuqRv8+fZg1d05XRVEWAl5OMlwv8HSFQFVVcf3119/3wQcfTHLahT2scaSkPBI1D8umSGiYCB99upxrR3Yr6WzwSaAA3fHH9aV5t5vpesGZdB2okNrQWgHU0K0dmcsibBTh2cEYP2z9CUZ21sNha3m/xxIRxbt/JMI0CJDD2oPL5trN0CXBmlcr/BAU37ensyxrBeN/HcdlKzvpF64/Z+Pzux6YsSw4r5cwjVTgKWBqeYvVs7RUelDviYBLxKoYjrjodU6rzbsffqCpqvqSEMJ7MkIVScR5lEmTJk1s3bp1m6IWBRzxmqKCLQKaZq32cM0Vnbjn9k+cZuWAABYRyB3Lqu8aKq8/1EO5rvX7/H3AGt57WmfLGmutKrs5Wwkvi2OLT4HXVYLLaHuRMX5YOBVgulvECrd5WDbnxw477Z22X+w+pBvYexcWR6Q3ZWKgoKCG+/Z8qsK+YIBNOT/xY8Yc5u7/ks3G6oBA/BN4NSxMxysCLFMGU4vpDBoawvgyvOG3K8TqeB5WuPXme13Xe3s8HuVEQsHicOazVq5cmdGpc5eaRTaRsDysMaSkPBF1D4sIL8s0weOBwGFBj/N7sHnrEqdpBaAAsYqqTRTNutxI98EeugyAM5tY4nUi/Y0FXqQJ9w8RbFx8Vkn2EagojvKqo0uSksI3bdeurOOr2z4kCsPCSIEqDPbAo1jhniEUDukBVh5czNKM+SzMnMUmY1UW8DDwI7De+bMqilQ0FnORpz4J24IYZ6gV0NRcUo4lWA/cdx/jJ0wYqOv6Nx6Px1tWYmVjn8+uz5o0adKCe++99/yC3+qWYD1NSsrDrhAsHKFhQjwsTQ9x7oDWx1pzvwJIADorKP1E827X06FPKh3Og6YdrNk+0ywUL8X+5DsEzPbGqsXBljUwsvN+oBGQ7fxh0aLsRl4Zoqgaz5/5wXlXpf7fd1m6rqgR+Vh7BQS/atVJqYrC/mAuaw4tY+H+WczN+jJ3h7ltIbAxvALCT0VOHiWm0YsLafR+gMB10ahmPxYOwcpPI8tPYetNp2rVqi0xTVMrTQlDaRHh3kxVVcXFF188dtq0aY9DgWC9SErKva4RLByilZQEk17Zyr0PdQUOOE2jREPgOs5s3p7eQ/vQ4bxEmnWAuLB4hYKFVfb2/bQ9q/gE+O9EeHX0IqBnyWLJiqHsR14ZcXXyXfXGNnt5c66hxwEFfXt+zcos7gpksiFnNfP2fSUWHJwZ2mFu+wu4G5jpPFe0uZOGvELv1vkE1lri6x6x4kjBykwjq0a1atVYvny51qJFiy2maTYqb7FSirbu0LFjx767du1aQMP6sGDWraSkvEYwqLhGsAiLFuHWnbg4uPyat5k642anmQvwALeT2uQBel1Si64XVKN+M6XY/kaA2Di4vY9g4+J+wPeOc0WVsh99ZUSSkqLM77D9z0RPXD2fKtBNhX3Bgr495mV/TZbYtxV4KOxFba3onFRJCLfeNPWhrhWIGPuSu+nCOwRrVxpZqeHWmzd1Xb+5LPNWR8OZz5o1a9aKwYMHdwoLViopKX+5UrBsLysmBvbtM+jc+2b27HvPaeoSPEA94ExqN/gHHfsNpM+lWkF/oxreeGPLGrijxx5CoTrOE0Sb8huBZcA7TeZd0zaxy/uLMuaqYZHKzxL7Pg9Xm/8n6vU5xyEOhWUM8bUgeX4+oR4unRUs8ppa8tm2Ltdd2eT9999vqev6Dx6PJ6G8xcpGhD0WwzDweDyMvv/+h194+91nWbcogZSULIJB1VWChUO0qifAzDn7ufBvTYHiC2HdRSJwGcmp59H70stoe241eg+Fae/Ai3c+DTzqfEK0Kf9ReBLUUxsB/HuHua0bsBy4F8h32rmVt+nETbR4JUDgTrflrWzCBSF40MhkNyMS9E2TN330WGpq6oemaVYrz1DwaNg/Lzs72zz/ggtuTn/l+VW0aL6CQMCDErG0sVsoks+qAf8ck87Y53uXd4lMGaMCV5HaZCSHc0Jk7hx+kv2S5YLL7vxRUdyU+CsJ1t6BFwwKEpymgOY2oYpEIPCgkMle8hc+90fdnu08pmGkHmvJmPLCmc9atXtnqIOZM43qSRdhGN7jTstHg4I6p3DiWgjof/FjpK8YF2kmOXlc5l8flUolVg3wMpEeNQShDwiLlV2C4SaKFofA42xl2YHfDwF1iBCPisQuW7FFQOzY5WHMM13xePILpt3dRpFZNgOqVYO3X3kKf9zVTlPJyVFZBKtS8S691FrEvxHEqOWmeqtI7NdkYOLDxwz+ZDLbv6tRo8anBa21FSxWNkpE2JecXEOp9tGn8OHHi6iebCWFbS/GTdivSdMgNxdaNleZMunJ4/RISkqJFKwyZgzn0Iczbg4QGO72JLuJIAaN3Rzien7cBVwCnOjidOWGpml/KreOuon169KJixMYhntFC6zZtqxDcPXlZ3Hl8PRKlHpxPVKwypDB1OIJOtYOEXxes9eld+FYjQxRFVTuZrHIwLwUyAP+cNpHG5/Pt1uYxk5G3PV/BIO5aFphHsttomW/LkWBvABMeqY9TRtf4TSTnBhSsMqIOBRe5VyA6cLaAsq1eSugIBR8ifV8zu6XgWVhE9e0YdgEg0FL9dNX/MqzE24jIc4ssqSKm7BFVFWtSvJaKfD2q+8rqtbaaSopPVKwyojX6azUJ+meAKFO7s9bGfjxs4gd3MuaAGC1wVi4UQliC/439vn/MOPbT6meYCW43ehlReazsnOgR3efGPvY004zSemRglUG3ElDruGcXgECEzVUl4qVFQqaCDQ0DnGYEaQJgbjYUW/jxiSxt8h3I+64iz93BIiJcXcSnnA+6+BBGHXXIAb3f8xpJikdUrBOks7E8zxd6+uEPtVQFQXrj9tQIsJBD17u40c2ExwHzHPaupCiXt+efRncM/pC/D7re7eJlU1knk1VVSaNf5jqyWc5zSQlRwrWSaCg8Ca9iCXmTR3jtMqSt3qHDbzNjh+Bfx4hBkd+7wZynQeYOmMeL732LNUTrHyWW70sOzQ8fBjObhTLOy/PDbfESE4AKVgnwUTa0oba7wcI9Hdv601k3srLBvbzd1YIoI/TNozLPvVw1ImAex96mEVLl5AQ7/58ll3qMGxoQ+65/QmnmaRkSME6QYZTh7/TskWQ4BUaatS26CoJIrzPYhCDO/mRXMTQYyx768Yc1tG9vjvu/T+ysg6haYX5LLdhlzmoKmRnw5hHR9G54z+dZpLjIwXrBGiAl9c4NxXMH4EYS6jc90GJrGb34uUxlpNG1kfAN07bCMKJIVcR4zxQwLoNf/DwmBEkxFmejP3lNux8lmFAXJzK2688hNfb2WkmOTZSsE6AN+hGLeKfysdIKixhcBe2WOnhEobpbGM8v/wEXO+0dVB2m0GWHUVnCZ1Mee9zPvp0IkmJolLks6zWnVgmPbsEqOE0lRwdKVilZAznMIBG9wcI3Oj2vJWJwI+X3RziVhYZwEXHDK8s3Dgm/M4DRzBy1MOs37iVatUqTz7r9ptVrhw+1mkmOTpuHJyupTdJPEr7BJ3Qg1p4JTm3iZVF4WylAEawkJ0Y9wO/Oy2LwWWfcgDinAecKMFAPqP+MQDTPIiqFoZgbsTOaeUFYMK422ja+CKniaR4pGCVkDgUJnNunAd1uYFR280lDEpECcPzrGYm+38GXnLaViIKK92PgjANmJf2G0+PH0NCnBUaujGfFellhUJQt47C5IkTSiLKEilYJeZ1OtOCWvcFCDV1+yoMduvNAv7kIdZnA/2dtpWMY+ewIhn7/EvMnPMZSYnuroK381kHs6Ff38Y89uB6l87QugopWCUg3HozIkDgycrQeuMLt97cxg8CuArY4bSvZJTmYgvufuBe9uwJ4vW6X7RUFQ4dUnhkdH369XbdGupuQwrWcWhDLE/TubogNFYNt96U7vNTUYiCEFVB5U4Wspnge8AMp2UlpOQeFsD233dy1+jriPWHIKKkwI0o4V2kVVXhtZfGcFrK0Qp6JVKwjs9keqiJVFsXxKjj9hKGwtabTXzErgzgJqdtCXCZKwInVGrx+dRPee2tT6ieYOWzCAuXm4gMDa3WHYUXnv66RLOiVRQpWMdgEu3oQb1LAgROrxx5Ky9r2cvfWaED3Z22JeR4ZQ/RoHQels2oh25h+Yq5lap15+rLE7lj5OJjFstWYaRgHYXh1OEeWnYNEvxMQ1XdKVZF81Z56FzPAnIRY4HNTvtKzImN01AowF0P3kV2Tk6R1h23iRYRpQ45eTDuiba0bvGI00RyogPhFCcVjZfpXg0o2PXGnVh5KxMTBS9jWMFa8pYBTzotKzknrjDpK37h0SfPJSEu5EqhwuFlGQYkxCu89fLjiqrJ1h0HUrCK4Q16KHVInB4gdLb7Vw818ePnCzYznl/0cDX7qcbRGrVLxqtT1vHRp/NJSnR/aGivUtqpI2LCOLdueR81pGA5GM3ZXEij/wsQ6OXe1pvCUNCPl9/J4hZrSfbrgH1O+1LirjdrcbLqInjgkcv5Zdv2StO6czAb7r7tHIYPfcZpVpWRghVBZ+IZQ8c2OqGPNFSPG8XKRiBQUQhhcj0LRAbmf4H/Ou1OEU7+JuzZd4hRo+/DNEVB645bsUswgiF46bnRNKx/gdOkqiIFK0wcCu/Qh1g8nxoYrhYqJdx648HLi6wljaw1wDVOW0lRlNnzp/L0+CdJrASrOqgq5OdDal2Nl1+YBbRwmlZFpGCFCbfeTKoMrTf2kjGL2MFDrN8DnO/ScgRXIUwDxj7/AosW/1kpSh00zSp1GHIBPPj3j2XrjhQsAEZQj2s458IgwTvcvgGqvVvzfnK4hgUCuBXIcNpKjkou145sy/59f1We1p0chTH/bE2/3h85zaoaVV6wGuDlWbrVF4S+BrwKyklneMsDq4DBfmUqt/Oj+I3Qo8DXDtOTxY1vv2zZ/nsmD435B7F+A+HCFR0iUcKtOx4PTHruSvxxj5dJTq+SUqUFKw6FzziPWlSbmo+hVJbWmzfYyOfs3gO86LSVlJD3/vMxb3/wr0qzqkNuLjRtCv9541GgsdO0qlClBasj1WlCUl+grQIFG0kUejLRp2jeymq9uYNV+4D2QL7TXlIK7rjvFdZv3EtcnDvzWSLctG33QqoKdO3ko2H9G52mVYUqLVhpZNGZr/5YxO7MGPwIwIwQLTcMXfu1eNA4RJDrWSAE4jFgl9O2jHBj8r58XlModIARdzUnL6/orjvRFi375yvhTStUFZIS4evpcFb7ANt/n+V8SlWhSgsWwGaCv57L3N5PskyoKHjR0MOF1UrYw4kWdt7KLmF4hHTWkvcv4E2nbRkSvTd8dMpHsADSVxzgibETSUiIvlAR4VUJYe+wA8F8uOXvcNk1OQRyGwA/OJ9WVajyghXmpzH8XP0Svp34B9n48WNiFvG2KprIvJXdejOZ7UHgFadtGVN+4nDilO8NeOm1J5kx6zOqJ0Q3NIwMAU0TkpLgp/Vw3hDBlPdeBBoBe5xPq0pIwSokeyb77+vOtMFfsHl3DP6wYBQWkVaUcNliZbfebOEA17M0CzirDFpvjkfFvMnSUd4iKhhxx31s3X4gKq07kT/HMMDnszyrSa9A1/OyWbfhCeD+Crj3rkcKloOdGLOGs+Ssu0jbGMIUMXgxMApEpCJEy/45Kgo6Jrfwg8hFjAP+ctqWA+X/BktP+b+mPfv+YtTonoBe4WJl/zzThIR4yMyA60bCvQ9lEwp1BP7lfFpVRQpW8eRNZnu7vkx7agOZFJeQLy/sc9t5q3GsIo2sD4AXnLblRPm9uRPn5FZrKCkz527ixX8/T/XqFZOAt8XKCL+9pCSYtwC6ngeffD4n7FFvcT6tKiMF6+gE08kZ04oZ573DhgM+fKjhENGmrIXL9uIid2sew8/ZwFNO2ypGxQgWCOWxsY+yaPHscm3dcYaA1apZtVb/fAouGJrDnztGA0NkCHgkUrCOg0B8P4Llta7l25lZ5Bsx4YR8WYeIIqL1JmK35hDQE9jmtC9HyuYNlS0V9pqEacAd915BVtbuIq07ZcURifVE+ONPuORywdjnNwKtw9607nyqRApWifmIXRefyzfDF7GjXEJEZwnF3SxmJ8YaYF0RQ0n5s27DIR549GriqglEuHXnZL0s+xzO2qqPPoVOfWFe2kSgLbDd+VRJIVKwSo6xmeDUc5lb/zlWLPKiFanZ4iRCxMi8lQ8fr1utN78DvSvSu3Ax5T1LeCTv/WcBH336dpm07thCRTgEtCvr77wfrh35Gwcz+4VnAa1tySRHRQpW6fnjIdafeyGznvmFLN2u2TrRENF+nr3rzSJ2cAerjPAAPuy0rwDKMP4pM6LxmkxGjhrJ+o1bTrh1J9KrMk3r/0mJsGY19L5A8OqUueEWq/nOp0qKRwrWCTKT/Y90Y0b76WzLi8EviKjZEiWUrci8lRZuvRlBmhCIq4EvnPZVmOiM00Culc86fFigaUU9peNh29ohoM8HsbEw6VWUrv1N1m34EBgAZDqfKjk60RkIpwgZmD9dxMLGd5H2eQgTu2aLYnJSxWNJm4hovdlMcDfwjdOyAinhJ7JCid44/WHJGsZPGktCuNSBsBgdC1usRLi9pmhtVYYwjR7A9c6nSY5P9AbCqcOuyWy/vC/T7ljLgfySJuQLQ0GTGPx8xM9MZvtvwBlRCgXdTHRFdOzzY5kxY+5xW3eciXWK1FaZfPL5e+H2mqXOp0pKhhSsMiKdnNfaMSv+HTas8uETVpV6ZIhYOMCdeastHOA20oPA0AqsOapMRHtp4CAj7hjGnzv+Iiam+CS8M7FetLbqEH/uuBu4EThY+CRJaZGCVYYIhD6C5d2u5dv7s8jHjz8iRIzMbdmtNxpBDG7hB3IRDwNrHaeMBtH1Zoon+uN0z74c7n/kYjyewlIHW6AiE+umCdUTrNqqy6+Bsc8HgI7Aq85TSkpP9AfCqUfwI3ZN7MTX5y9ixx5niGhXKRiYePHyGMtJI+sT4N/OE0kK8DgPRIXPp65m8huTSEoqms8qUluVBP/5H7TuIZg5dxIQD/ziPJXkxJCCVU78Rmjeucxt+BwrFkaus1UYClqtN+P5ZRswwkWVzW70sKIdEhby4D8fZnn61oLWHSJqq4L5cOe9cO3IXAK5lwP3yhC/bJGCVb4cfoj1fc9nxoN/kC38+AliRrbeEK7DyXM+MYq4UbDcM05DoXxuvvtvZGXpBauUFq5bBa9O2QM0BD53PlUiqTTUQO0+jV4/C24QJteK4dQRgOu2IU9LS0sUQghD10U0MQxDCCHEr79uE/Hx8RWxrE7puGPkI4g8QeCAYOKzAq9XAE8DMU5TiaSykvAsLf/zLC13AO+40ZtJS0tLElKwSsaUl//DyBtygJVAL+fDEomknElLS0sW7hOsP52v00W4J79WBXBPbkDiFuSYKB0yqV6ByMEpceKOEoKiFFNWLqmKSMGSOPE5D0gkbkEKlsSJ13nABciwSwJSsCTF4MYkcr7zgKRqIgVLUhkIOg9IqiZSsCRO3Bh+yXEqATkQJMXglp7GSNw4cymJAlKwJE4KWkuEEFH7cuDGiQBJFJCCJSmCaZr1APKDQQzDiNqXGV6+xTB0pIclsZGCJSlCQkLCaQAxMTF4PJ6ofamqNTTj4uLw+Xy7na9TUjVxXfOtJLoMOK9f/TMaNlgXCoUSw4ci47PSjpfI5x4R54VxnrPge6/Xy969e83p06ZfKRCfFTWTVEWcg0UiAagH9ARWAL9FJOKVo3jlhUupFsVabPXYOMegGg4BE4DawCHAnas1SCQSiUQikUgkEolEIpFIJBKJRCKRSCQSiUQikUgkEolEIpFIJBKJRCKRSCQSiUQikUgkEolEIpFIJBKJRCKRSCQSiUQikUgkEolEIpFIJBKJRCKRSCQSiUQikUgkEolEIpFIJBKJRCKRSCRR4/8BkjYlDXSJ7DwAAAAASUVORK5CYII=" vertex="1" parent="1">
          <mxGeometry x="98.80000000000001" y="2.5" width="55" height="55" as="geometry" />
        </mxCell>
        <mxCell id="iLJ1Fh5zyO8JFfnYmev2-8" value="" style="shape=image;verticalLabelPosition=bottom;verticalAlign=top;imageAspect=0;aspect=fixed;image=data:image/png,iVBORw0KGgoAAAANSUhEUgAAAlgAAAJYCAYAAAC+ZpjcAAAAAXNSR0IArs4c6QAAAARnQU1BAACxjwv8YQUAAAAJcEhZcwAADsMAAA7DAcdvqGQAAGRVSURBVHhe7d13eFRVwsfx35lJIaGlYGgSEEEEFlewA4pdsevaUFdXEHvv+7q2XXtbRUGRotgFrGtDRUHBAgKKBkVRIColECCB1EnmvH/kDgkXApnJnWQm+X6eJw9h7pmUyWTuN7eca6y1AgAAgHd87hsAAABQPwQWAACAxwgsAAAAjxFYAAAAHiOwAAAAPEZgAQAAeIzAAgAA8BiBBQAA4DECCwAAwGMEFgAAgMcILAAAAI8RWAAAAB4jsAAAADxGYAEAAHiMwAIAAPAYgQUAAOAxAgsAAMBjBBYAAIDHCCwAAACPEVgAAAAeI7AAAAA8RmABAAB4jMACAADwGIEFAADgMQILAADAYwQWAACAxwgsAAAAjxFYAAAAHiOwAAAAPEZgAQAAeIzAAgAA8BiBBQAA4DECCwAAwGMEFgAAgMcILAAAAI8RWAAAAB4jsAAAADxGYAEAAHiMwAIAAPAYgQUAAOAxAgsAAMBjBBYAAIDHCCwAAACPEVgAAAAeI7AAAAA8RmABAAB4jMACAADwGIEFAADgMQILAADAYwQWAACAxwgsAAAAjxFYAAAAHiOwAAAAPEZgAQAAeIzAAgAA8BiBBQAA4DECCwAAwGMEFgAAgMcILAAAAI8RWAAAAB4jsAAAADxGYAEAAHiMwAIAAPAYgQUAAOAxAgsAAMBjBBYAAIDHCCwAAACPEVgAAAAeI7AAAAA8RmABAAB4jMACAADwGIEFAADgMQILAADAYwQWAACAxwgsAAAAjxFYAAAAHiOwAAAAPEZgAQAAeIzAAgAA8BiBBQAA4DECCwAAwGMEFgAAgMcILAAAAI8RWAAAAB4jsAAAADxGYAEAAHiMwAIAAPAYgQUAAOAxAgsAAMBjBBYAAIDHCCwAAACPEVgAAAAeI7AAAAA8RmABAAB4jMACAADwGIEFAADgMQILAADAYwQWAACAxwgsAAAAjxFYAAAAHiOwAAAAPEZgAQAAeIzAAgAA8BiBBQAA4DECCwAAwGMEFgAAgMcILAAAAI8RWAAAAB4jsAAAADxGYAEAAHiMwAIAAPAYgQUAAOAxAgsAAMBjBBYAAIDHCCwAAACPEVgAAAAeI7AAAAA8RmABAAB4jMACAADwGIEFAADgMQILAADAYwQWAACAxwgsAAAAjxFYAAAAHiOwAAAAPEZgAQAAeIzAAgAA8BiBBQAA4DECCwAAwGMEFgAAgMcILAAAAI8RWAAAAB4jsAAAADxGYAEAAHiMwAIAAPAYgQUAAOAxAgsAAMBjBBYAAIDHCCwAAACPEVgAAAAeI7AAAAA8RmABAAB4jMACAADwGIEFAADgMQILAADAYwQWAACAxwgsAAAAjxFYAAAAHiOwAAAAPEZgAQAAeIzAAgAA8BiBBQAA4DECCwAAwGMEFgAAgMcILAAAAI8RWAAAAB4jsAAAADxGYAEAAHiMwAIAAPAYgQUAAOAxAgsAAMBjBBYAAIDHCCwAAACPEVgAAAAeI7AAAAA8RmABAAB4jMACAADwGIEFAADgMQILAADAYwQWAACAxwgsAAAAjxFYTcS01VbD50t/FruXAACAhkZgNQGz8q2u+8G0fiZXh9/6k87PL9Puklq4xwEAgIZhrLXu2xBHZuVbc/G3pkdOoU6S0WCf1PW8bH3+YF/NzUzW15IWu+8DAACii8CKY7PyrS7+1uyaU6gRMrqp5hbJ87P124N9NTEzWRMkrdryngAAIJrYRRinnLjKyCnUJe64kqRJuep+Q45OyS/TiZISai4DAADRRWDFoaq4knIK9YCMLpdk3GOCkp5Zrj2dyOrpXg4AAKKHwIoz1XFlJsroRElJ2wosSZKRb1KuBt6Qo0fyy9SRnzcAAA2DFW4cceKqdU6hGSOjYyRl1BpXjqBVKyeynswv026SEt1jAACAtzjIPU44cdU5p9CMlNGVktqGE8g+qeK8bL30YF+NzkzWQkml7jEAAMAbdV5Bo/E4cdU1p9Cc7RxzFVZcqeqYrIRnluvcG3J0YX6Z9paU4h4DAAC8EdZKGg2vxparM2R0raTMiH9uRpqUqxE35OiC/DLtJamlewgAAKg/dhHGsBrHXF0noyucY67qz0rnd9U7D/bVA85kpOXuIQAAIHIEVoyqcbbg4zIaJik94i1X2+CTAudl6+sH++rfmcn6yL0cAABEzrMVNrxTI66ekNFJktK8/lkFpcRnlqv/DTm6I79MR3JMFgAA3vF0pY36c2ZoT8spNA8681x1kOR3j/OEUctJuep/Q45uzS/TIEmt3UMAAED4CKwY4sRVl5xCXSmj8yR1jPZlboJSyqRcDbohR1fkl2l/IgsAgPojsGKEE1e75BTqHBldJald1LZcuQQlMylXJ9yQo/Pzy7QvZxcCAFA/BFYMmJUvXfyt6ZhTqLOcCzfvcIZ2rwWrLhB9phNZAzgmCwCAyBFYjawqrpSSU6jLZHS9M4loo3C2ZJ19Q45uyC9Tv4baggYAQFPDNA2NyIkr5RTqvzI6U1JWLESvTyo9L1tfPNhX/8xM1tyqmbMAAEBdNfrKvLmqEVdPyOhvzjFXMfHzCErJk3K1zw05uj+/TAPZXQgAQHhiYoXe3Dhx1S6nUI/J6BRJnaJ9tmCYTFBqNSlX+96Qo9vzy7SfpFbuQQAAYNvYRdjAnLjqmlOof8joBmfrUKyGrvVJOi9brz3YV085l9XZ5B4EAAC2FKsr9ibJiavsnEKdIaOrJaXG+M/AOAe+n3pDjv6RX6a92V0IAMCOxfLKvUlx4iorp1Bnyuha5/I3DToVQ6ScKRzOviFHI/LLtIekJPcYAABQjcBqAE5cJeYU6mJny1V795iYZqWg3TyFw035ZeoeL3EIAEBj4BisKKtxtuD9MjpD0s5xNb9UjaeHLyhrrErO7a4ZD/bVxZnJ+oMpHAAA2BpbsKLIiStfTqH+LaOTnbMF4zWuZKyMpJSXftWgG3L0VH6ZusXY2Y8AAMQEAitKnLjKzCnU9c4kol0lJbrHxayt46rq/arIavvSrzr47gW6N79MfTkmCwCALbGLMAqcuNo5p1CnOhdu7txE4mpzkfuCsn4rjeymCbf014TMZH0rqbT6ngAANF9swfKYE1ddnLi6WlK3JhhXcg5yNxOXasTdCzQiv0z9JSVX3xsAgOaLwPJQjd2Cw2R0k7NbMH7UPa7krx5rnv1VI+5eoIvzy9SHY7IAAGAXoWecuDI5hbpdRhdJ6uAeE9MiiKvQv75g1bhze+jtW/rr6sxkLXXuAgBAs8QWLA/UmIrhHhn93blwc/yoZ1yFPLdEh969QKPzy5TNcwsA0JyxEqwnJ66Scwr1gIxOdea5ip/dZB7Elc9W3c9YtXz5Zw10ImuXuDr2DAAAD7GLsB6cuGqfU6hLZXS+s1swfqLCw7gKve+TbEJQZaftrtdv6a97M5P1k6SKqhEAADQPbMGKUI2zBc+R0aXOJKLNPa5C82QlT/lJw+5eoEvyy/SXuJpcFQAADxBYEXDiqlNOoU525rlqF1cREb24kq/qNuMLyry2SJc88ZXO31Si3jzXAADNCSu9MDlxlZZTqDOcea66uMfEtOjH1WbGyjz3i654eI4u31SiLlwgGgDQXHAMVhhqnC14m4wucA5oj59oaKC4qvmx/VbWWAX/vptev25fjWiVoo3VIwEAaJrYglVHNeLqYRn9wzmgnbjaflxJVcdk+V75SUc9PEfPbSpRq7h63AAAiACBVQdOXKXmFOo+GZ3kbLnigPYdx1VVXVmZSqPWr/ykQx6eo2c2lagTzz0AQFPGLsIdcOKqQ06h/iGjyyS1J67Ciqvq2yTrDypwWh89d92+eqRVihZLcj4LAABNB1sRtqPGVAxnyOhySR2Jq4jjSr6gjKTE13I04uE5umhTifryHAQANEWs3GrhxFVHZyqGqyV1FlMx1CeuNu8ulGRey9GVD8/R8E0l6skxWQCApobA2gYnrlrlFOosGV0rqZt7TEyrJYBiIK5q3te8vVBXPTxH12wqURaRBQBoSggslxpnC14qowub6zxXIVGKq83e+U7nPzxHj28qUWr1rQAAxDcCq4YacfVPGZ0jqWtcPUa1BFAkcWWcoIpWXPmrPqaRlDjtOx358By9uKlEGXH1eAMAUAtWZo4auwVvkNEwST0lJbvHxaxaAiiG4yrEBINqM+07HfLwHD29qUS94upEAgAAtoFpGrY8oP1MZ7fgLsRVg8SV/NWf3yYYBU/tpReGH6zRrVK0UFJZ9UgAAOJHsw+s2fnSRVVTMZwko2vYLdgocRX63NZnpb/11bjhB+uZVilaQGQBAOJR/IREFDhx1SGnUH9zzhbcJa4ek1oCKE7jSs6ZhOaNH3ThxBka4cyTxe5CAEDciZ+Y8JgTVy1zCjVcRjc016kYFDtxtcXnfvt7jZg4Q9dvKlG35vw8BQDEp2a5i9CJK+UU6kEZneVc/qbZTSKqGI0rVd3P+qzKjttDHw8/WJe0StEf1UsBAIhtzS6wasTV4zI6QVInSQnucTGrlgCKtbjavDyyuAr930oqPG4PzRp+sC5slaLVkiqrRwIAEJua1a4XJ67Scwp1j4xOJK5iOq4kyfgr1ebD+RoycYYeZwoHAEC8aDaB5cRV55xCjZDRcOfCzcRV7MaV/FXbqoyklh/O18kTZ+jaTSXaQ1JS9SgAAGJPswgsJ652ds4WvFJSFnG1deDEYFyFPqbxW5np8zR84gwNJ7IAALGuyQeWE1ftcwp1mjMVQxdnq0h8qCWAYi2uNr/vfVzVZGbM1SUTZ+jCTSXaPa4iGQDQrDTpg9yduErOKdSNMrrE2S0YP2oJoFiMq60iycO42vy9hT5XUPbA/fTq8IN1U6sU/b7lIwUAQONrsoFV42zB+5xrC3YWUzFsFTjxFlfO+1ZSyYH76ePhB2tEqxStrV4KAEDja5K7CJ24MjmFekBGpzpbroirphFXkmQSgkr58ksd9OZ7Gr+pROlN9bkMAIhPTW6l5MRVZk6h/i2j0yRlx9Wp/bUEEHG15fvOcXRt3/9Wh735nh7bVKLsuDq2DgDQpDWpXYQ1Ltw8TEbXScqIqwOhawmgcOPKfT934MR7XCVsGZJWkh26px4/6Rg91SpFP1WPBACgcTSZLViuqRiubq5TMbjv5w6cJhZX8gdl/EH5ps/TFW++p/OdyUgBAGhUTSKwnLhql1OoU524apZnC7rv5w6cJhhXVf9W/d83fZ6ue/M9XbypRF1C9wEAoDHE/S5CJ678OYW6SUYXO/NcxY9aAoi4CiuuqsZUfdzgkH31/EnH6JJWKSqpXgoAQMOJ68CqMRXDQ87Zgp3ZLbh14DSjuJIkm1CpTYMO0IcnHaNzWqWotHoUAAANI253ETpxlZhTqMeduGqWF252388dOM0sruScSdjqqy916Jvv6YVNJcrk7EIAQEOLy8D6Yt3my9/8x4mrnZvjVAzu+7kDpxnGVej/RlLaV19q6Jvv6cFNJepOZAEAGlLcBdaX66QLF6hbzkaNdI65ylIznETUfT934DTjuAo9GYyklLmz9I8339PlzrULAQBoEHEVWF+uk0YuUNecjTpL0nWS2sbV91BLABFXnsdV1fuVMpLMt5/pyjff0z82lahnjcUAAERN3MSJE1ftcjZquKSbJaW5x8S0WgKIuIpaXFX9a6Wgke/bz3Tdm+/p0k0lyqoxDACAqIiLswiduFLORj0uabiklLg6pqaWACKuoh9Xqv5araSKIfvoxSGn6vxWKTXuAACAx2J+C1aNuBor6TRJLYirrQOHuHLe30ZcOYw/qIRZX+vEmVP14iZmyAIARFFMB5YTVyk5GzVG0nGS2sX617yFWgKIuGrYuPLZzR/TSEqb9bWOciIrvnYzAwDiRszuInTiqlPORl0h6QJJ6a71aWxzRYw7kkK3q2aA1Aih0Fj3/dyBQ1w57+84rmrebv1Ble43UM8OOVUPt0rRb1v+xAAAqJ+YDCwnrnbJ2aizJd0oqaXYcrVV4NQ3rtwxouYRV6HbbGJQdsBgPTrkVE1slaIfJdUYDQBA5GIuWpy46pKzUcMk3SCpdSx+nbVyRYw7kkK3q2aAhMYQVw0VV3J2F/rmz9I1M6fqgk0l6qV4ep4BAGJaTK1QnLhKc6ZiuF5SG/eYmOaKGHckhW5XzQAJjXEFR+h94mrL/3sUV0qsEVoLZ+qqmVN19aYSdaweAQBA5GJmF2GNswUfkHSepJ2a49mCUnXgRCOuQmO2iKQYiyu5AiuKcRX62FZS2R5DNHnIqTqPKRwAAPUVE1uwasTVKElnSsogrrYOHOLKed/buJLzXEv+6RM7YOZUjWQKBwBAfTV6YDlx1dqZRPQkSR0lJbjHxSxXxBBXNW6Lj7iSJCVVWiOp20+f2FNnTlWHTSWN/7sBAIhfjboSceKqc85GXS/pLEmdiKutA6e+ceW3W4dMrMVVQmWjxlXo3VaS9vrpE3vLzKnabVOJkrYcCQBA3TTaMVjT10hXLVRmzkYdK+nR5nrhZnkYV+6Pv8VyV3SEwqrmMvfn3uq+NcLE/T1tjqYan1uuuNoiwGp8nm2FVYi/ls/rVVxpy8CS85MNSBq9+6Hm8yGn6utWKVpRcwAAADvSaIE1fL40KVeDgtJNko53L49pNR6yWIqrvOcurL6zB1qUV6o0qWobUuj9FuXbKJQIpAaMihOtUgPeHWqXWu75c3nBsAv7Tbz6okvf8rdK+t29EACA2jRaYP1ZLF35vT3p9ZXmEUm7uJfHrFoCqDHjykjyBwJaOfFcrfnuleoPgno7Z/fTC/597b+ezB7W625/q6RN7uUAAGxLo+2S65RiNaqfyT2lo/3cvSxm1RJAjR1XiKo2q6fnnZX78uL/q9xU7l4GAMA2NVpgGWPUOVU/jupnXj6lo/095i9TUksANXZcue8PzxlJHVdPz9s/9+XF+xFZAIC6aLTAcpR0TtXXo/qZG07paL+RVOweEBNqCaBYiCs0iERJe6yenndN7suLsys3lcfPma4AgEbR2IElSes7p+rNUf3Mw6d0tO9KWu0e0KhqCaBYiqvQ50FUZUg6cvX0vJtyX158cuWm8iz3AAAAQmIhsCSprHOqJo/qZ548paP9SNIq94BGUUsAxVpchZYjqoykNEkXr56ed1Xuy4vPrdxU/heJubIAN2utGusEKiBWNNpZhLX5s1hDrvzejnx9pTnOmRurcdQSQLEWV6ExieUB/fY8ZxF67ZzdT9dlf93m9BeB9odlTcwe1uspf6ukHGfuLECSlJOzSDNmfhaK8naqmtJtk6QCSaWSKmu8yhhVvTwkS2ohKZiaklJy0kknlKanp7s+cnTl5v6uaR9+pPLyciMpRVKq87WVO29B563misPn7EZv6dzHJiUlbTzhhOPWt8/Kiq0VDNCAYi6wVBVZh1/5vb3s9ZXmmEbZQlBLAMVqXEkEVrRsJ7AkybY/LOvV7GG9bvG3SvrNvRDN1+TJU3TrbXemSTrRuUpFG0lzJX0gaamkQidYrHP1itaSujpT1pRlZmYuem7ShB979OhR5P7Y0VJYWKjbbr9T778/rZUTSn0k9XXCaaWkP5xILJNU4XztxgnDjpL6S+rl9/uDZ5115mfXXXv1aykpKYXuzwM0FzEZWJKS/izW3k5kneVeGFW1BFCsxtXm8QECKxp2FFiSStsflvVu9rBeZ/pbJXkzCyvinhNYDxhjznfiyThRUuZsvXIfOWmcrVx+ScrIyKh4btKE6T169Bi2jbGeKykp0ZgxYzVh4jMJwWDwXSeuUp34M87XENrqtq2Vhl9SgrU2YejQo3T7bf9amp6e/rKku9wDgeYiVo7BcivvnKpvR/UzD53S0d7l/NUUfbUEULhxZWpc368h4gqNxkhqsXp63mG5Ly9+qXJTec1LJwIZzluysyU+VVK6s8swy/W2kzO2rfOWKWl3Scc6z7OosdbqlVcm68WXXu4WDAY/lXSAc13YDGfLW2vna8pwvq5223hLl9R6r70GpFx7zdUp6enpayXNcX8uoDnx33HHHe7bYkWgTaLWDc4wucuKbdmPm0x355c9OmoJoEjiKvR+Q8WVPyjJBrV+4RsqXv1D9QLU2x7t+mrfDnu5b67JSGpRtLRo58qi0g5teqUv8CX5G2y3DmJTTs4iffrpzJOMMQPcy+oiJSVFJ598YklGRkaupC9q2WrkiY8//kQPPPjQHps2bbpdUuiwjLD++LbWqmfPHvr3nberZ88eCyS9ImmapBL32B3Jzf1d8+cv0LJlyyJ68/v9atu28Q7fBUJidRdhTb4/i9X9yu/t5a+vNCdLynYPqLdaAihu4kqSKtlFGA072EVYU1BSUfvDsh7MHtbreX+rpGXuAWg+nF2EE5xdhGFvgcrIyNBzkyYs69Gjx1hJD0RrN+H8+Qt08z9v6bp8ee45xphbna1tYevQoYPu+s8dGjx40AxJkyV9KOlX97i6eOaZSXrwoUf8fr//LEntnd2Uch6DgDNfYuhEgSTneLFk53EuufnmGz8++6wzlzu7Y4FGE9ZfKY0k2DlVS0b1MxNO6WjfkpTrHlAvtQRQPMVVzdvQOKwN+nymrPWaT36/PPflxWdXbirv7h4DhKnEObA8KnJzf9dDD//XLF+eu48x5qRI4yo1NVVXXXm5Bg0aOEvSaGfrVURxJUkVlZXJlZWVfwkEAjcGAoG7A4HAvYFA4B7n7a5AIHB7IBC4xXm7NRAI3Oncfld5efmdkkZI6h4n6zc0YXHzBOycqu9H9TNjT+lop3o2T1YtARRvcRX62Ggc1gbl922epSEr/9OlN+S+vPgflZvKO245EghLkRMqnv+Gr87L0/33P6h58+ZnG2MOlLS3e0xdJCYmasSI8wPHH3/sL8aY/5P0rqT17nFhynAiqWuNs8iNqg6kT3XOWOzpHKPWzTkuLMWZ4qKdpBslHRTVQ0qAOoibwFJVZOWM6mcePaWjfaLe8w7VEkDxGFc1l6FhueJKPlMhSW3XzfjlOucC0Yk1xwNhKJO0xuvAKioq0rhxE/TJpzOSnN2Cl7vH1IUxRmeccVrwH+f9fVVCQsKZzkHtYR9ztQ1tJB3tBFOk9pG0q/tGoCHFVWCpKrJWjOpnpp7S0d7vXlZntQRQvMYVgdU4aokrmap/W6yb+eOw3JcXj+UC0YiQrfcfki4VFRV66eVX9eqrU2StnSjp1EiOEbPW6tBDDtZll168vGXLlo9J+tHDY55MjWOqIrWtqTCABhV3gSWpsnOqlo3qZ6ac0tE+G/YUDrUEULzGVUhKkA0lDWkHcSWZCp+k9PWf/TA09+XFEyo3ldfnr3Gg3qy1+mDahxo/fkJyeXn5U5IOd7YWhRUy1lrttdcA3XTTDWvT09M/k/SyR1uuQqwTa/X50zFX0lr3jUBDisfAknPtwp9H9TNjTulo35eU7x6wTbUEUDzHlftzI/rqEFfO/yt9krIKPv/2pNyXFz9Sual85813AhrYnDlz9dBD/21fUFB4k3NQe7tI4qpnzx66/rpryrOzu8yWNFbSCve4eqqQlFfPLVB/1nm9AERJvAaWJJV2TtU858D3jyStdg/YQi0BRFwhHGHEVWi5T1J64ay5F6yaOvvKyk3lvTbfGdg+W8/I2Gzx4p91/wMPpa1atWqwpJE1ro8YlszMTF137dV2wID+MyRNkPSle4wHSiUtqufu0UKPt6oBYYvnwJIzhcP0Uf3M+FM62s9rPXullgBqSnEV+tiInnDjqgYjKXHtp0uvXTV19nAnssLacoBmyTrHEtXL6rw83f/AQ4k5OYv6ShomaedI4io1NVVXX3W5PfjgIV870zH8zz3GI8XOAfP1Oaar5sW0gUYR74ElVR34Pn1UP/PCKR3tV85fP9VqCSDiCuEIN658pqLGmKr7GVPpXz9zyfWrps6+zNldSGRhe2x9t2AVFRXpicfH6IsvvuxijDla0inuMXXhTMegE088IdeZjuFt9xgPlUj6rh5bsHhFRExoEoGlqsh6a1Q/M+6UjvaHzb9gtQRQU4sr923wXjhxVVONuJIkWVX61s1cfPmqqbPvrdxUHtHEjkBdlJWV6dlJz+vNt95OknSepH9FGvUnnXiC/cd5fw8mJyefJWm2e7nHAs4xVFv/QgFxpMkElqoi68NR/cxtp3S0XzSnuEJ0+Uz1noodxVUtW65c/1Zo/Wc5x6+aOvvFYHERkQXPWWv11ltva8KEZ3yBQOAeSZe5x9SFtVaHHXqILr/i0rUtW7a8StJiSdGed8Q6kRXpq1ugvlv+AC80qcCSVNQ5VV+M6mfuPKWTfdsXVFFziSs/f+tF3Y7iqqbtxZUkY0xl6w2fLzx05eQ5LwSLi8I+mwvNgon0eTF79hd69LEnVFxc/KCkM53Z0cPWt28fXXPNlevaZ2V9KmmqpA3uMVGQ6MzWHvZxYo64Of7KWquSkhKtzstzLhA+Q5MnT9G48RM1esxTevjhRze/jR7zlMaNn6g33nhLX389R0uWLNH69etVUeG8HjUjNR+3xYt/1tdfz9GsWbM1a9ZszZ+/QDk5i5Sb+7sKCwsb9fGJh4s9RyLlz2Lte+X39ro3/zCDjVV6c4ireZOHcbFnj52z++m6Ys/zdhhXoeVVt203rqqDzFRaSaVpg/u/1PH0fe/3pbb8lb+8mwaPLvb8WY8ePc5ydpfVWU7OIt108/+l/vLLkn8aY4Y7sRL215Cd3UX33Xt32YAB/b+SdJukz9xjwmGtVXn59jd++f1+jX16fKdRo574lzHmHEmt3WO2x1qr2277V+CsYWecVllZ+ZZ7eW38fr+MCfshikhFRYXy163Twu++18KF3ytn0aKUP/74Y7eCgoLji4tL0isqKnzB4LZfBowx8vl8atGihVq0aBHo0KH96uzsLjP69u37/R79/lK+2249lZaW1mDfS01FRUVasOBbBQKRHTrXp28ftc/Kct+8haKiIv3wQ45mzfpCOYsWKS8vL3HduvW9S0tL+wcCgV0kpSYmJvoTExNsSkpqeUZG+vd9+/T56j//uWOp+2M1hKYaWJKkP4t13JXf20v+l2sG+qQ0NeG4EoEVFefsfrqu6n+2tJ24Uo3ACiOu5Ks6xMTKBNXu4J6PZZ581ARfastFRFb88yiwPncCq84XfM7N/V03//OWdvPmzT/dGHNPJBOJyvn8d95xmz3iiMPmShojaZJ7TLhKSkr08COP6rfflmZJ+qukTpKWS1ogqcAZlv7HH38cuXx57hPGmHSFuRXLWqu+ffvY7OwujwTKA89I+sl1LFcL5zFp61znsKhjp44rr7n6yrKWLVvWGOa9wsJCzZs3X598MkNfz5mTunLlqgPKy8t3McakSeol6URnS2Nd9ixZZ1foKmvtp8aYhampqWW7795rzaBBA78/eMhBP/fosWswObnhjkBYsmSJLhh5ifLz8wc414lMq7G4wvkZb3Re31IktXR+BhWJiYnzHn7o/qWHHHJwcY37bFZYWKjPPp+l119/03z77XdZxcXFhzofP1lSH0kDnAt8t3Qev9Djs7Bt2zazv/5q9oeSPnR/3Ghr0oGlqsg648rv7d/fX2YGSkpXE4yr0OecM4XA8loosKIUV5IJyjihlXnw7o9mnnzUeF9qy5+IrPjmYWCdLel39/JtKSws1F1335v+1lv/O9oYMyqMlfUWUlNTdd111+iM009dlJCQMMqZTLTeCgsLdfEllyfOmzf/YGPMPyX9xZmOYUqNyUq7SjpJ0jHO/8N+7Jx12ipjzKvGmI9rTPfgc+Kqg6RO1tpUSfl9+vT+fsL4sUvS09OXRGPurMLCQk2f/qmmTH2t9U8/Ld69qKiorTEm07mg9UAnCrxgJf1irf1fZmbmJ4MHDyw54fjjVu2zz95LkpOTI9usFIbFi3/W+cNHtlm3bt2dkv4mqbPz87POcXsrJK1ygretMxdbqqQyn8/36mOPPvLyEUccttCZpkNyfpZz5szV2KfHt5g795vu5eXlXYwxvSRdW9fpRtq2bRP8+qvZb0o617mAeoMJ+5cv3nRO1auj+pnRJ3e2MyQVbi+uQqIVV367jUjyKK4kKTUQ9msRwrGN3YIexZWMqTTrZuZcnf/GtCuDxUU7N4ffTXinrKxM48ZNTHnnnfeGGGOucVZeYT+HfD6fzj5rmE7928mrEhIS7vMqrqSq3XCS2jtRcYjzNR7jTFj6vvM2VtKxzoo5ohc0Y4yMMR0kXWWt/Z+19kPn7QNr7WRr7Shr7c2SrpR0p3OpnzudFbZnysrK9OmnM3T1Nde3uu32OzvNmzf/oOLi4ieNMR84n/MID+NKzuO1mzHmunXr1r3z1lv/e+O662+85a677u23ePHPHZ2gjBq/3+eXtIfzs+3iPP+M828LZwvTQEkHOuM6OVuh2js/i39I2i308crKyjRlylTddPMtmbNnf7FnIBC41RjznqRHnRDfYVw5fM7n6e5eEG1h/wLGo86p+uCBAeaOkzvbSaHIkRM9qhFCocCJVlzJdbuXcVXzfXjLmIqt4mrL5fWOq83j13/23QX5b0x7OFhc1LZqIJq5HW7JtNZq6mtv6MWXXj4wGAxeIGkv95i6Ou64YzRy5HAlJyePdCLAawdKOsF1m6/GW0RRVU9JztcU0YkA27I6L08PPvSIrrv+Js2e/cVpgUDgHWPMG5L6N9R61xjTpqCg8MwpU1/76oorr35jypSph5eUeL6Bria/pEGuXYPhOF3SfnLi6rnnX9R99z+kVatW3WGMmSLptHo8P5Lr8XVFrEF+0DHAdkqxix8YYCYc28U+JqmyqcVV6OPBW8mJhZvfj8JuQfd4Y0ylb8Pn84/Mf2PapGBxUftm9DuKrQWdY1e26+OPP9Ho0U92Ly4uPk7SQZE8Z6y1GjjwAF133TUVbdq0Oce5BM4OP3cEWocO1XBWltt6awxhP2a1mT9/ga655nq9+OLLWcXFxeOMMf+R1Ns5OzIUkdH+PkOfwy8pMTf39z3uu/+hx++55/47V+flRWtLVtDZnb3lZN91lyIpKTTFyJNPjm1ZXFx8rrOlr4PzvUT62BVI+tl9Y7R59qSKdcaYss6pWvzAADPp2C72FUkFTSWuED1lgTaSqWiIuAr93xhT2bpg1tyD8t+Y9lSwuKiH88KM5ie4o8vFzJ+/QA8+9LA/Pz//PGcrTCv3mB1xDgzXTTdev759VtZ4STNqvexY/QUaYB6tSNT7ldRaq48+mq6b/3lLm3nz5l9grR3j/Ew6ObvIGlNKcXFxl6mvvX7uv++86/bc3N/buQfUV2VlMOhEzDYPVK8DI0kLFnyrMU8+nVBcXJwt6Spnd2CCe3CYSiWtc98Ybc0msBylnVO16IEBZvTQrvYDSWuaQlyx9Sp6am7B8viYq22OrxFZbQpnf3VM/hvT/hUsLupLZDVLlds76Do393c99PB/tXx57uXGmNMkZYdWUuHo2LGjbrrx+uJevXbLcY6BWlOXXZMRKpC01n1jvLPW6uOPP9Hd99yXvXx57mXGmIudY8myIvmZRImx1nb7ePonZ91x539uyM39vYsH4bKZ3++zknLrsQXLVFRUJD/3/AstV65c2VvS9c6xWl7EabAel16KWHMLLEkq65yqLx8YYMYf1c1+5LNa1RTiisiKHmMqI53nKuy4Cr1JQWNMIHHjF5+fk//GtAuDxUV7EFnNTq0rhfXr1+v++x9sMW/e/BONMZc7p8WHvSJv27aNrr/+mop9993nZ2cqhm+jvIWpMIpbx+qjxqtr+ObMmau777mv+6pVq85y4mqAR2HgOWPMzrNnf3Hh/fc/ePHqvLxdnWPQvGCdiWi3+ZzdkYQEv3/evPl/+eyzWX9zzr49R3U/kD0mNcfAkqoOfP/4gQHm6cO72098VuvcgRRPcYXoasi4qhIMvW+MqTSbvpxxcf4b04YHi4t6x/sLDuos9Bu/1W95UVGRRo95KvmTT2f0Mcbc7ZyxFXZcJSYm6uKLLrRHH3XkUmPMZEnj3WOioHx7W+Xi0ZIlS3T/Aw+1W7ly5YmSLo90S2JDMsakffLpjP974vExZxUVFYVzRt6OlEcSq36/X2vWrPF/9PH0w4qKim6TdJETfl49jqYxeqfBP2Es6ZyqmQ8MMM+cmmVnhDZrxmNcEVoNo4Hjqup2WRlTaYq+mn5J/hvTrnKmcPDqRQexbasVVUVFhV56+VW9+uqUztbakZJ6OmdIhcXn8+mMM06zZ555+oaEhIRnJd3rHhMlsXoMVnBbj/eOFBYW6onRT5qcnEVHGGNCcz/FBWut3nzr7dvefOt/J1hrd3Ivb0iBQEBjnnxar7/+5s7GmF2d+bG8lBjJ8Yn11awDS1WR9emNQ8yYU9rbz+I5rhKIrKiKZlxV2zquZIKbby/++sNzNr774iPB4qIGP90Yjc9aqw+mfajx4ycoEAjsLGl4JLuNrbU68sjDddmlFyslJeV2SY+4x0RDZWWlJOUbY1a6lzUy6+y2rPnLuEPWWv3vnfc0ffqnbYwxB4emGKgPa618Pp8yMjLUp09vDRjQXwMHHqABA/orO7uLUlNTZYwJTaZab+Xl5Zo06bm7Fi368Uz3soa2atUqFRdHenz8DqU4ZyI2qGYfWJIqO6fq6xuHmHtP6mj/57eqiCSuNr/fCHGF6IpmXIXe3HEV+hhVt1vnmKzKxIJZcw/b+O6LzwaLi3bi97d5mTNnrh566L8qKCg8TtLjkexCsdZqr70G2Guvudqmp6dfJunVehyUHBa/36/0tLTcDh06LO7QoYNqe2vbtk3EAWGtVdu2bbb6mNt7S0tLK/L7/f+UtMz98bbn559/0aRJzykQCNwn6ZT6HDBurVVGRoZOPPF43X3Xv/XMxHF2wvixa8Y9/eT7o5947OZxTz950fPPP/vf8eOe+unGG64r3WuvATYxMTHixynEGKPly3OTJz33/N/LyspGuJfHqtD37fP5lJiYuPnN56t6SbTWuh+bRtlF2OQvlROGVn8Wa8ADM+2Id/40xxmrjHDiaqtIasC4Cm29+vK1s7R8UTTmBmy+RvQ7Wlf0P22r+HHHUiRxVf3v9rZc2c3/hi6pI2ljm8H7f9z62LNv9aW2XBKju1yaNQ8ulWOfmzThwx49ehwt5zifG2/6P+XkLOpqjLlQ0g3hbr2y1qpnzx72/vvuKe3bt8/NziVqVkWyaywS1lrlrVmjstKyXpLOdqIkVdIS5+D6FZLSpkx57YCnx40/MpILFltrdeWVl+v4446Vc8bickkrnVnjuzvzcIWON7KS/kxukfxMZkbG2ISEhNV13YpVUVGh++5/0Dz//ItDnWs+7hHJz1nOsXAHHThYI0acX9G3b59lycnJkyQtdU4IWONc7LvMmT+sq6TWhYWF2dOnf3rYhInPHPPLL0tMJI9VTW3btil++KEHJg0ePOiGSC8ns2TJEp173gj/unXrpksa4l7uhbZt26hz587q26ePunffRTtl7aTkpGSlpLQIBgKB8qLi4vKCgkKzYcOGlqtWrjJ/rlhhNmzYEHz9tclvSzrfOQi/wRBYW0r8s1h7PTDTXvn+7+YwSVnxElc+K81+ncDy2oh+R+vqvU5R0NYeS5HE1eb7hhdXzphKa+UPth406IXWx549xpfacmFDbYVA3XgUWNN69OgxdHVenv75z39p9uwvkowxZ0u6zDlLLayP26FDB931nzvyBw8eNFnS7c50CY2xAkhy5oYa7Jxp96ekX52vp9W48RP3feihRy42xgwK90w8a61uu+1fOvusM+dImumE2zrn2ncdnKALbcmwktZaa6cbY5Zu64SC2uTkLNJll1/lX7Vq1UvORJihyVPDkpqaqhEjzq/8+zlnLW3Tps0kJzKn1bhmX23aSdpzyZIlh/73v6P2nf7Jp2E/VjVZazV06FHf33vPXU+lpKSMcS+vCyewktatW/eRM+GtJ4wx6tJlZx115JH2kEOGaJddupW3bt16RUJCwrvOc6bqr9SqiXFDZyS1sNaa0tLSFoUbN5r2WVkLnT8oGvT53uCbzGJcoHOqvrpxiJkwtIv9zG+VrziJK0RXbbEUSVxViyiuqt41Ad+mL2acu/HdF0cGi4ti9pRw1EtiUVFRqyceH6MvvvgyyRhzuKQzI4mr1NRUXXXl5XbQoIGrJT3mHHPUWK8c5c7uuBecMxffdyaoXOfMo/Shc/sm9x3ryEp6R9ITkl6S9IGzK/Qx52D+u523eyQ9bYz5NZy4stbqgw8+THLmahoY6SVYEhMTdcklFwUuGHH+ojZt2jwt6T5JE53g3F5cyQmLj3fdddd7b7v9X48fdughr1prV0f6MzXG6Msvv/rLjz/+dIZzvFKkErzqitDu3rPPHqbx48aWX3vtVT8MGND/tfT09EkJCQnjJN3v/Bzvcn6WDzjHEz4i6R5jzN0pKSn3tM/KulfS65E+NvXhyQPR1HRO1fQbh5jnj8y2s3xBFcRDXHE8VvS5YynSuKr6N+K4qvpcptJUnV340YiN7744Ilhc1C/cXUaIaWbVqtUZz056/sA333p7V2dF/n/O1pKw4kqS2rRpo9126yljTImkxVG6DI5XNkmaXo+tslbSQifWPJe3Zo0+nTEj3RgzwtnlGPbPQ5LOOOM0e87Zw35NTk6eIOnBSH4mxpiNWTvt9NY111x5Td++fd611kY8ieuGDQXmvfc/SLfW7q/Ip22I+Di0mqy16to129566y2Bm2+6YWF2dpfPjDFjnK23Fzmh/EcdHrMSZ5fnjsZFBYFVi86pevvGIeapw7vZz2v+ohNXzY9V5Vax1Mhxtfl9nypNyVcfnL/x3RevCRYX7cLvdNOwYcMG/evWO3afMOGZRwKBwH8kTZV0QKQr81WrVmnc+AkqKiqq8UoTs2yk8yk5Ir1fncyd+42WL8/NlHSlpDbu5XXRp09vnfv3czampKQ85WxZi5gxRj169Fg/fPg//tmyZcv36rD1a5uMMfrqq6975a1Z81gkU384fJE+R0NCcXXbrbeUHXfsMb8lJCScJelISU9JynOPj2W8GG+HsyXr3sO62Td8QeKquXLHUgzFlfN+hUq+fufkje+++FCwuKhj1Y2IZ8FgUKtWrWpRXFzcQ9LJzjE+9VpxTZ/+qSZPnuqz1tbr4zQA4+ymivTrjNp6raKiQl9/NUfl5eURh0RiYqLOPOM0ZWd3ucvZdemJww49ZM1BBw1eaK0N62zImpYvz01c+N339XmuRfy4hKSltdWVV15ePHjwoDnOwfI/RTuaoyVqT8QmItA5Vd/eOMSMGbKrfctvVbZVJMVAXPntlh8H3qtPXIXeohVXkowxweSyuW8dtPHdF58KFhe1V+Sb+BE7jLPLpYUXK65AIGAmPffCzgsWfPtApFteGkiSpG5e7W7yUv66dVrw7bfdjDGnOj+PsH8mPXv20JCDh2yU9JtzlqAnUlJS7IknHP9Sy5Ytp7qX1VV5eblZuPD7BEmZEbyGmPo2hbVWxx9/nD36qCN/kHSxs8XKebGLP/V6MJqJ4s6pWnDjEPPfwT3sxz6rgtCCWIkrRFd94qpa1OJKxgRljDVSsE3Z3DeGlHw45olgcdFuHJMFt5UrV6Y/MfrJk1fn5XWJ4edHiqQ963GNvLCjp66WLV2mFStWdpN0untZXVhrddhhh6p9VtYTzhmOnsbDnnv+ddXuu/f6xTngPSLz5s9PLSoqGu6cqRiuej32HTt21Gmn/m15QkLCR5J+jNctVyEEVt0UdU7VFzcOMaMH9rQfScqLtbhK8PTXFFuJMK62teUq9DE8jKvQ5zDGVLYq+uKTv5V8OOZa58D3SFdSaIKMMYlffvlVlxeef+mKioqKLu7lMSJFUn1P2qjXir42ixb9qKKiojaSdnMvq4uWLVvaA/bfz0p6LxoH4aenp2uvAQPmS3rLvawujDFasWJlysqVK8+QlOFeXkcRPfbWWh04eJB23bX7D5LedC+PRwRW3QU6p+r9Ow7QuIE97fuS/iCumgkP48q5tmA04qpqmWR8JmBKvpw2ouTDMSOCxUV/rccBq2iCrLWJk6dMGfnppzPPcC5MHGsSnQtYh7uLqqaIdt9tj7VWv/22NLTbNqJ1Z7duXSt32aXbn840C1WXiPDYfvvtszApKemDSLf+5OfnJ6xatTrsa1xWVm5ecUX0eZOSkrTf/vvahISEPyTNdy+PRxE9SZqztLb68I4DNGq/XvZ/ktYSV01fuHEVettWXEVpy1XVMklGQclUyvgCpvTrdy4p+XDMRba0oA9bslCD2bChwPfkU2Nvys39/SRnEs5Y4nO2YtVn/VTvY9bciouL9eeKFSnGmFaRfGxrrXr02LWkdevWbzuztHvOWqvs7OzKzMzMskiv8BAIBMzy3N/94X6Pfr9PkcaVMUatW7fW7r12K3OmVojo48Sa+jyBmyVjjNLTzPwbh5in99ndTpZUHgtxRWhFWRhxVaUR48pUPVmMKk3p1+8ML/7g6VtsaUF3ft8RYoxRTs6itk+MHnNqUVHRkQpzZRpl1tm6E1Mr2U1FRcrLy+sgqad7WV317NlzY0JCwuPOFizPGWOUmZmhTp06Fkn63b28Lqy1WrVylSJ8TkT0M7PWqkOH9srMzPzNuXRSk8ALboQ6pyrnjgM0cUAfO6mx4yqkRSCi5zZ2pI5xVW3LuKp6p8HjSpKVz5Sp7Os3hxZ/8PRjzpasSF400QQZY/T++9P2ffOt/x0qaWf38kYUlFQc6craEazn/beysbBQ69at3925xE/Y/H6/OnbsUOnM1B7R1qW6SE5O1s47d/7DWvuGe1ldrc5brYqKip3CnNXdRvqYW2uVlpampKSkj52Z/ZsEAitygfQ0s+iOA/TU0C72Cb/VpsaKK/f/4Z2EhPV1iqvQ27biqvr2ho0rZ4wxvoqU8rlT9y/+4OlHbGkBx2TFudAlRFJTU92LwhYIBJLHjZtw0vz5C650L2tEQQ92E0W8sq9NYeFGlZaWdor0APcWLVpop3btFK1jr0ISEhLUPqt9vqRv3Mvqau3afFVWVv41wjMJw37sQxer9vl8K53rMTYJBFb9lKS11aKzTzDjjsy2Y322+onRkHFVnyNBsX0VFVXXcN1RXFWJubiSjJVR0BgTaB2YO3lQ8QdP/8eWFuwjqeXmD4K4kpmZqVtvvUWnnHKSe1FE8vLy2j8x+slj169ff4l7WSOx9ZzJXfW87zYVFxcrEAi0ivTsusTEBLVq1cp9s+estWrTtk1JpKHi8/lUWlqqioqKPcMJrMrKoBcnFpRLKnPfGK8IrHoyxpR2TtUPI4/WhMO72rcl/dmQcRVCZEVHQsL67cZVtZiNK6nq/8aYQErgm5ePLf7g6UttacHekuq/CQQNKjU1VZdddkn+sccM/fzcv58ztk+f3m9Yaze4x4UjGAyar776epeXXn51WEXVXxSxsF5wvdo1vpKSUqnqDMKIThjx+xOUnBzRXcNijFFqamqFcw0+G25sWmtVWlqqysrK7hFMSFvfwArra411sfCL1BQE09PMj2efYJ45vKv90G+V11BxFQqrUNQhOmqLq+qIqhlOUZ+KIdy4ct63xmcCpmLeC2dWTL/vH2zJii8+n09nnzVs06l/O3muMWZUdnaX2664/NL70tLafippnXt8OCorK1s899zzPT7/fNbpMfCcsE5gxdTKNiFh85+xYUeEz9ewq9rEBL81NV8wwlReXq7KysoM5yoC4Qr78WmqGvan3sR1TtWckUdr0kG72g9CL3gNEVeIrnDjqrEOaN9BXFX9KyufKTelX7/5j4rp911iSwv2jPBFFA3suOOOsSNHDv8xOTn5Fefiz3kHHjh4zumnnfawz+dbKKnGK0t4jDHasKGgw+NPjHk0N/f3PjFwnF5MxZWcawhGKhgMKpKtSfVhql48IlYeCLSIYDVDXNVAYHksra1mjjxaDx+0q33Zb1WhBogrf6WUEIjqcZPNXlOJq5ofq2zOa6dXTL/vVlta0I8XxthlrdXAgQfouuuuCbRp0+ZlSZNCyxISEjR8+Hmz999/v1+ttaVb3jM8xhizaNGPSePGTbixpKQkogO5PRRxLEZTfSJLW07GGVWBikrV96LeSWF+r848WDRFDTwYHnPmyfpp5NF6dFAPe1NDxBWiqy5xVfVOfMSVqXFgftmc1w6smH7fI7a04Ajn+BLEEGut+vbto5tuvF7ts7JulfSKe0x6erouv+ySOzp27Pice1kEzLvvvX/UBx98eJCk9u6FzVn946pCFRVVv+PRVl5W5rPWRvwFJyUlyTnbsWGKsIkisKKjPK2tlo88Wm/sv5v9pz+oddGMq5r3Q3SEomRbcRXDx1xtM66q/q2QMRXGmIrU8rmv9q+Yft/ttrTguAgOakUUdezYUTfdeL169drtNkmvS8pzj5Gk/v33XHHeuefMT0xM/Mm9LEymqKio5ZNPjb0yJ2fREZEe0N0UtWrVSomJCYp0N19xcYk2bdrkvjkq1q1bnyApNON8WFuyrLVq0aKFkpKSCiOYryuix6apIrCixBgTSE8zv488Wi/ts7t91plcjriKQzVDZ1txFU9brqr+rf4r2lRFY2rgm5f2qph+3zW2tODIcE7NRvS0bdtG119/zcb99tv3OUlTJC2v7ew6Y0zwb387+dPDDjvkbWttvTaTGGO0fHnubmPGPHXR+vXrvZkLoglo3bq1UlJSKyKdx6qyslJr1kZlAvctWGu1YcOGlpK6uZfVVXpampKTk/90zkSsE2f3J2ukGgis6KpIa6vckUdr4j6729cSglquKMRVzclN4T0nQppkXDn/GmMCyRXznj+oYvp9F9jSgiGSMjcPRINLTEzUBReMCB591JHrJI2WtGxHK/Y2bdosueTiiyZ37Zo9xVnRRfzKYIzRZ5/PGvjSy6+eY609wL08yur1tUdLcotktWrVsiTS6whWVlZqZeSXoKmz0tJS/bliRZakQe5ldZWRkSG/3/+jpPXuZbVxjsGqeuGBRGBFn3NMVs7IozWufx871We1TMRVHNoyrqreaRJx5bwmBuUz5QrOn3BUxfT7zrOlBQdKStt8BzSo1q1b66ADB29ISEj4UtI8SXU6gL1Xr93mX3LxRfempqZ+I1WdZBOp8vJy34svvrzf7NlfnCuptXt5lMXcK1urli2VlZWVH+k1/iSZ3OW5PmttiqIYWYUbNyovLy/LGHOIe1lddejYQcaYhWFeM7HqRQybEVgNJD3N/DDyaD321772WX+w6knrVVwRWdG29ZarUJg0nbiqfl20C8YeXzH9vgttacGgMK9FBg/5/b5fJD0Q5krLHn30kb8de8zQG621a2vbpVgXxhjl5+dnjXly7L6r8/IGupc3N6mpqercqVOutfZ797K6+vW33xI2btzYPVrTYFhr9ecff2rFipWtIt1F6Pf71bVrtiQtjWBrXUxufWwsBFYDco7JmvCXfvZBL+Oq5gH08J47VprelqvqJ1BorF0w9mjNvOVGW1qw/+aFaGiFkr4Pd4WVkpJSNHLkiHl9+/aZZa3d6F4eDmOM5s9f0H/cuAmjysrKorbVJR4YY9S9+y5LJM11L6sLY4yWLVue+vvvf5wtqeoaXB4zxmje/AUqKipSpOv31q1baZdu3eQcfxXuVtCwnqtNXUQ/AEQuPc2sGnm0Xuu9h/0/SUEv4ootWNHnDpOmHFeh/wbmvrS3Zt7yb1tacChnkzWKqidIBLKzuxRdcfmlV6eltV3ixUrv9dff3Pmjj6dPk7Sze1kUmFhdN/Xs2WNDy5YtV0X6mK5bt67lnDlzz4jW7veSkhJ9+eVXrZwTVcIOYmOMdtppJ7XbifNcvBCTT+ImrsLZkvVq7z3szTVPu44kriQpaKQWkU95gh3wmYomv1vQFVehaRxSK755rr9m3nKHLS04jCkcGpxPUqS/2MEDDxy84vTTTrveGDPTvTBMpqioqMVTTz09cPHin//inP4fbeHOIN4gsrOzg+3aZVZEGljWWt/ns2ZnFRYWtlEU5p378ceflJOTs58x5gz3sroIBoPq06e3zczIKIs07lGNwGoc5elpZvnIo/Viz/72YUlLIo2rmrcjiprBbkH3/42plDGVLYPzJ+yvmbeEpnDYaYvB2J6w5yBySajPdQETEhJ0zt/PmnXAAfu/bK1d4F4eDmOM75dflrR88qmxlxcWFjbELO8RP24bNmyQs26L+GPUplOnjurTp3ehtfZn97I6Mt9++53/66/nXiCpl3thfVRUVOi99z/Qhg0Fu0raL5Lv3+/3a++9BpQnJCR8Hc4UDWrAWerjCYHVeCrT08yKkUdrQs/+9kVJvxBXMaqZxlXVv0FJSgzOn3CEZt5ygRNZHba4E6LFX9+tRe2zsiovv+ySaR07dpwhqxL38nAYYzR9+qfHvPbaG+dYa/u4l3ss4rX1qpWrZK1NisYWooSEBA08YP+lfr9/intZXRhjVFRUpJdfefX09evX9/PyYPd58+brvfc+aGuM6RjpMV5ZWVkaMKB/saTnw72AeI1pGuAgsBpZeprJH3m0Jhy4q31N0gpFEFf+IAe6R1PVlpzmF1fVKmVMQHbBU0dp5i0j2JLVYHxeHPvWv/+ey88795yZiUmJ30S6ayukvLzcTHruhZFz5sw9JYpzpdkIZhCXVBUwOYsWKW/NmnbRmlpiwID+y3feufNrztcZ9uNpjNFXX33dZuprb+xnrd3VvTxc1lqtX79eY58er/z8/L0k9VcEW6+stdpzzz3UpUuXUklvS9rgHlMHVS9MkAis2JCeZn4fOkwvDNzVvuqvrDotNpy4QkNoXnFV9TUHnbiqcb/vRh+imbdcbEsLjpGUunkBoiEYaWjUZIzR3/528luHHXbIg9babV5qp66MMVq5cmWrx0Y9cdjqvLxDorEOSfD7Q4EV0Yr6l1+WaO7cbwZI2sW9zAvdunWz++27b5m1tjDSrzEYDOqZZyZd+PHHn5xgrW3hXh6O4uJijR7zlL766ut2xpjzJJ3gHlMXSUlJOvzwwyqSk5M3ObsHI1m7VL2IQYrGLwcik9ZWi4YO09P77WafDDeuEiP5NUCdJPg3Ncu4quKKK1MpayXz3eh9NfOWy2xpwbGbFyIaKiUVu2+MRJs2bXTJxRd92rVr9khr67f+M8ZowYJvD3zh+ZeOr6io8Px0s6Tk5KAxpijSFXV5ebkmTnz2lMWLf97PvcwLCQkJOu64Y9alpbUdLyniaTDy8/NT7r7nvsHvvvf+QZFeBHr9+vX676Oj9OqrUxQMBsdKOs09pi6sterX7y8aNPCA1c5lmbZ71YDtYG1UA4EVI4wxNj3N/DZ0mCbu3cve7LNVf7nuKK5CiKzoIa5qLpck+c13o/+imbfcYEsLTmAy0qix9VjRbaVXr92KLrn4oqUtW7b8vr4f11rrnzxlyvGffjrzPvey+mrbtk3A5/OtiGAOJklVAZiTs6j1P//vX0d99NH0I4qKilTfqHTbY49+6w44YP9HrbUFkYagMcasWrXqwP/85+4rxz49/rjVeXl1/jorKio0f/4C/etft+ull15pGQgE3pd0mKQWimD3YFJSkk468Xilp6fnShpVj+dH1YsUJEn+O+64w30bGk9li2QVdumpP4tWqXT1GrO7P1h9FtG24qpmWP386xtavT7iSYaxDft2ytLgLp0kJzKIq80Szeq56SrduJt2HvS7SWiRJ6lsixHNWE7OIn366cwTjTH93cvqIiUlRSeffOLSjIyMl7zYTRjSrVvX4tWrVv+ck7PoGGNMvS7ZUlZW1uKXX35pv+++e3fIyMiY4dXWi/Xr12vatI98gUDgtEgP8jfG+PLy1mTM/Ozzvy5Y8O0+vy75rdXq1auX/vHHnxW5ublatmyZchYt0txv5unXJb+qW7euSkys+4wYiYmJwfT09OLPPp91VElJSYd6HCuXXFZWttM338z7y+efzxq8YUPBxgS/f02LFi3KExMTZWr80pWWlmrlylWaP3+Bnn32OY0e81T7nJxFJ0i6VdIhzmMV9s/TWqv9999Pl1xyUW5KSsq7kt5yj6mLdevW6Y033zYlJSXnSeoa7tfSpUsXHXvM0GmJiYlfuZfFK1PXYkaDSli/we7y/su69vscc4KkTjuKK0ma+vHZWvjbS1veiHq5bO++umngvsRV7S+Vlfavl32sIXePNi3azgrn4rBN2eTJU3TrbXdONMac715WFxkZGXpu0oRPevTocaKkTe7l9ZGb+3uLq6+5bnROzqITjDH12sVnra088cTjl91+279ObNmy5S9exGBu7u++c88b3m7VqlXzPJjY1Dq78b73+Xxz/H5/ac0tLOXl5ZV9+/YpmDB+7NT09PQV4Wy5qaioMI899sQJ48ZP+I+kfu7lYbLO9SY/bdu2zeLOnTuvy87u8n3rVq2/SW6RnFdWWhb8c8WKpD/++KPLypWrBpSXl+9qjOkk6a+SQpcxqv23dDvatm2j++692x5yyMHvS7rNufZl2JYsWaJzzxvhW7du3SeShriX78jAgQdo9BOPXZuSkvJf97J4xS7C2FSRnmZ+GTpME/v1tR/4rHN2YS1xlVC59eV24B3iavNN2+I3340+SjNvGe5cIDqi08NRq+0/+hHIzu4SuOTiiyakpbXNre9WJ2OM//33p+305lv/u8Ba68lZhZmZGcHu3XcptNZWPfnrxzgT5A4KBoPXBAKBmwOBwD+dt5uNMTdLukHSRZLau++8PX6/357z97PeGjCg/2vW2t/cy8NknF3txxQUFF69aNGPN33wwYdXTZn62sjnn39x+OQpU8+fPfuLEbm5v18cCASuMcbcJOliJ65MpM8Tn8+n448/TgceOPgHSe9EGlc11Pfn1aQQWDEsPc3MHTpME/v+xU7zB7UmdLs7rtBAiKtame9Gn+RE1kFElqeiscKqPOSQIV+cftppM40xK+v7OcrLy1uPGzfhqgULvj1UUoZ7ebhatmypvfYaYJ2rXNR7i5hLKEaMs/5LdMLqn85Zh3VeJxpj1D4rS1ddefnTHTt2fE9SgXtMhIyzu+9gSbcZY540xjxtjBkl6WpJ+zpTUNRrMtXQrsGRI0dsTEhImCppsnsM6qfOTyY0jvQ0M3voMI3dfQ/7rqRy4qrhGVUSV3Vgvht9ombecp0tLTiCA989YesbP7VxZnm/9oAD9n/VWluvXZDGGLNy5UrzxOgnn1q/fv3h9bi8z2aHH3ZoZWZm5muSVrmXRVFKJJOT7rvvPisvveTCaampqV/Vd4ugS80YrPlWb9Za9e3bRzfdeH1l+6ysOc4FrPPd4yLgydfXVBBYcSA9zXwzdJhe2X0POyd0mzuukiqj8joMqUnGVTVv4irEfDf6AM285f9sacE57mUIm3WmaoiK9llZuujCC+7OzMx83L0sXMYYffnlVy0nTpx0fEVFxV7u5eHaddfuFcccc/Tj1tql7mVRVBzJmYvGGJ1yysnTrrj80tdTU1O9iJSostaqa9ds3XTj9erVa7fVkh6T9JF7XIT8IrI2I7DiQ2V6mvli6DA9suueNi+hcsu/koir6GpqcVX1NQc9jytHgvludC/NvOVyW1pwMReIrjcvt4hsZd9999lw/vnnfZiYmDi1vlvLrLVm8pQpx3z++ax967tuSUhI0JlnnFbUs2ePjVHYTVibikgf74SEhMBZZ535+hWXX3pb27ZtymyMnj1mrVXPnj30n3/fUbHffvv+4Rx7NjOSsKxFi/r+7JsSHoj4sTE9zcwcOkzXd93Lrgn9ZUtcNZAmFFdVohJXIS2cyLrUlhacyGV1ImYi2WUVDmNM8IzTT/3uoAMHf2itLXUvD1dBQWHG40+MOSc39/e/u5eFq0ePHrru2quf6NChw6z6xt8OhHbF1utzJCcnr/37389+8+abbryha9fsYucg/ZhhjNGgQQN1/333FOy3374zJF0haYZUdfUQDxhJWfWYsqLJIbDiy7r0NPPa0GG6p+tedkG4VztHZHwmQFyFL9mZjHSkLS0YygWiI5IQ6TxQ4WjTps2GSy+9eEbXrtlPuZdFIidn0V/HjZtwYklJyV/cy8J18MFDZtzyfzdPzs7u8m2MbhTaQkJCwqqTTjrh+f8+8tB/Bg0a+KXP5/MqXiJmrVXbtm10wYjhuvfeu37q27fPeGe34FseTwHik9SDS2hVI7DiT3F6mhk1dJie7rqXnSbp9/r+5YU6Iq7CZcx3ow/UzFv+YUsLjpbU0T0A25UUxQsqb6Fv3z6/XDDi/KdSU1OXhjMX1LYYY5Lefe/9Pf73v3dOk6onSo6EMab88MMP/eC/jzz07OGHHfpNampqrO5928wYs6FPn973P/zQ/WNuuP7aydnZXZY01mt0YmKiBg0aqPvuvbvwqqsun9U+K+tpSY87UzJ4/TX5JGU7uwlBYMWv9DQzbugw/afjvposaVmkxw6gjoiriDkXiL7AuXZhc9pdWN/dTn5na0CUf0JVjj/+uPXHHjP0BWvtxnp+3SouLu4+fsIzf8vJWTSovrs5jTHL+/bt89y99971wP333TPv8MMO/bFt2zbFxpigh7EV8cWlt8UYo/T09JfOP/+8G8eMHvXMyAtG/JSd3WW9z+er8+VwImWtVWpqqgYM6G9v/dc/Aw8/dP8Phxxy8McJCQn/lvRfScvd9/FQwMvHMd5xqZw4ltLCrNq5pz5ftV55m/7U4O+Wv57iXCqnQV6Qm4N9O2XpoG5tJSdUiKvImNVzs1W6sZt2HlRmElrMb+p/EDiXyjlK0h7bCIyaK6Bt/gRSU1ODJ5984q8ZGRkveDi/0nYlJiYW9+ix6+fz5y84LS9vTWYdzwirbWVqCgoK0vLz8/ceOHD/l1JSUup7fFdpcnLyol137f78wQcf9PX++++3R49dd01p0aJFhd/vr5CMKioqjLU2FDDb/bqNMfL5fEpJSbHdunWrPGbo0b8mJye/Imm1e2w9lWZkZHx+wAH7zTt4yJD0rt26dq2oqAgUFhb6y8vLjbXW1LwcTqSstUpKStLOO3e2Bx98UMVll15ceuHIEZsGDBiQl5KScpKksZKWuO/nJedSOZXFxcVHGWM6un4GtT1PpKqv32Rndwkce8zQDxMTE792L49XXCqnCVi/waa8/7IG3v/QOZMX/vZSGlsmvXPZ3n31ryHdiStvBOxfL1ugIXf/27Ro+96OXnTj2eLFP+uLL77sJ+laSf9wLd5hYLVsmbrhiCMOfyM9Pf2Cho7R+fMXZHz33cLRko6pw1mgtf0MjaTypOTkJQcOHnROdnaXRR5eqzJRUmtrrb+8vDx1Q0HBXmvXrD0tLy/viA0bCtLX5uebwoJCs2HDBvf9lNwiWSktUpSRka6dsnbSTu3aBTt27LimS5edDzXG/FLf3aPbkWitTZXUqri4ePdly5bfPWfO3D1+/OmnlCVLftWqVau1ceNGVVRUKBjc/o87FIctWrRQmzZt1L37LurefRftuedftUe/fpWdOnWclZCQME7Sh87PZ300p/sIKSws1PTpnyYUl5RMlXSkay682p4nIaZTxw7TDzxw8IMJCQnT3AvjFYHVRKzfYFs+8vCd+y186YuXnN0wjR5ZiQkFClS0VWKC93+AJ/irP2ZFZdst/u+lI3q01XG9diKuvFNkD33sK7P3lUOjuDKLFS0kdZbUydkaFPph1kWFM/FjVLc6bEdP5/gvv3tBHYR2baZKKrbWzjbGbKrDSjYSPmdW8yznCgKJcrbo1Fjur/F9+IwxiTUmQy2WtEHStw30fDTO49JdUquKioqEjRs3ZuXlrdlnxYoVR69Zs6bHmrX5KaUlpT53INaIw8qdsnYq3aldu3UdO3b8NTMzY25qaupcY8waZ1dngaQVjXhd0N2dn0ey8zPf4vqPtTCS1kn6s6G22DYEAquJsNYqkF+SuHTi4lPWzVt7u6ReXkaW31f92uPbvDJ3VvKulXv18ur71BYTxlRuDpDqM/WCm6/9t83xW/y75efYOky29XU5Y1Q1Q/vm25iKIaqslUz2EKsjn1yuzN79nLNgm8sLkM/5XpvD92ucgAlFTGOf7exzvqbQ+6Hosk7INkRY1SYUXJ0l7epcaiixtvWyszsx9HWXOBG1wgmT4jACPtrcj3GzRGA1MeVri83SiYtHrp+/boRzpfVk95hwWBsMK662HFN1v9piojpGKiOMq6oAqfl/I+tEU80wslt8zND7xFXDceJKOvLJCmX2/knS/s4KgRcgAE2SZ1s4EBuS2qXaXYb3Gp8+IOMpSV9L2ugeU1exGlehN3dchT5GXeNq88chrqKqRlxVKrP37878O3XZbQAAcYstWE1U+dpiLZ24+Lj189ddJ+nAcI+liNW4qv5367iqvr1ucRV6n7iKnhpxVaTM3islvS3pOvc4AGhqCKwmrEZkPeccAFonsRpX1Z+PuKr6t8bXZ4IxF1eSpC5DpCOfDCiz92xJT0qa7B4CAE0RgdXEla8tzlo6cfGJ6+eve9q9bFtiNa6q/yWuqv4N3S82t1xJm+NKyuz9byesljrHXQFAk8cxWE1cUrvU/F2G9/oqfUDGVzuahybcuPKZCuKKuNq2qrgKKrP3/0l6SdIvxBWA5oTAavoqk9qlLt1leK+70wdk1HqB6EjiKoS4cj4ncVWlKq7yldn7AWfL1W/O/DwA0Gywi7D58JevLR62dOLiE9bPXzfImfxQIq6IKy9VxdXvyuw9WdIoZ46eLb8hAGgGCKxmpnxt8eClExeftX7+uqGSusVbXIU7z1X110BcRV11XE2V9JATVwDQLBFYzVD52uKuSycuHr5u3tqL/L5A+9DtsR5XW95OXFWPCy3ffFPDq94tOFHSw1G4aC4AxBUCq5kqX1vcbunExWcWLFj5mCQfcUVcRawqrqwye9/lTMWw0j0EAJobAqv58jlTOBy58dvfJ6nmSp64Iq7qqnoqhtudswWXOhc1BoBmjbMIm69gUrvUvF2G93q/9Z5dzpa0SqoZIlXrSOJKxFVtqicRvVXSq5JyiSsAqMIWLJjytcUpSycuvmjTwl8uldQjtPJuqnFV/XFjJ662fb+Yj6u1yuz9vKTRTlxVny0BAM0cW7Bgk9qlFu8yvNezmfu0fc6YysVqwnFlTGX1xyeuIlMVV3nK7P2uE1fLiSsA2BKBBalqxvf1nc4+8OmMvTNe8JmKJaHbm1pchcRKXNVUfb+Yj6u1yuw9XdJTkn5lnisA2Bq7CLGF8rXFbVe8+Pm5G+bl3WJM1RQOtcVEdYwQVyHu72F7cbXt+8V8XBUos/c7TlzNcg8BAFQhsLCV8rXFySte/PzYgvl/vlZbTFTHCHEV4v4ethdXNf+/xddngrEcV1Jm70cljZW0WBIvHgBQCwIL21S+tjh9xYufH1y4IHeyMZUJ2lYQEFehD73V97C9uNr2/WJ+y5WU2fsO59qCv3JtQQDYPo7BwjYltUvd0OnsA2e06Z99saQV7lgirrYVSVXfQxOMq1Jl9n5Q0lTiCgDqhsBCbawTWVNa77nLI5J+ro6R2I+rmoirCFUf0P6spGclLSGuAKBuCCxsj03MTCnsdPaBE1v9tecESYviJa42f3ziKjJVcbVCmb1fd6Zi+FlSmXsYAGDbCCxslzFGSe1S13c5d+/RLffYfaKk32SCxJXre9heXNVUfb+Yj6vVztmC/5X0A1MxAEB4CCzUiT89s6jLuXuPb9mv76OSNhBX1d/DjuJq68cmhuNq5wOlI58sUmbvNyQ9Kukn9xAAwI4RWKgzf3pmQZdz956cNqDzLdpGfGwdJVUBUvvtxFX1uNDyzTc1vJ0PlI4aK2X2flXSRGcqBgBABAgshMWfnrk287RT/td2QPZlkkq3DogtA6T224mr6nGh5ZtvanjVcfWCc0D7D5sfXABA2JgHC5FIqFyfn5X3yvunbPz2l5uMqdxZ2wiQrWMldDtxVT0utHzzTQ2vKq5KlNn7FUnPSPpW0kb3MABA3RFYiJSpXJ+fnvfK+5dv+u6nc42p3FU1AmTrWAndTlxVjwst33xTw6uKq3xl9v5A0uOSFkoqcQ8DAISHXYSIlPWnZ67LOnPoxFZ/3X2KpKXEVdzG1QxJYyR9Q1wBgDcILNSLPz3zj6wzh05suUffKVJwxdaxUhUmxFVMxtUGZfb+XNJ4SV9IoQcdAFBfBBbqzZ+e+UvWmUOfSu2353hJm9xhQlzFZFyVOluunpT0gXsIAKB+OAYLXvFVrs/vnD9l6ilFC3MeJa4Uy3ElZfaeJOlpSXMlBdzDAAD1wxYseCXoT89cmXnaqf9ruUffW6RgEXEVs3H1tBNX3xJXABAdBBa8VOFPz/w987RTX03tt+c4KbiauIqpuNrkbLl6VtJ3kordwwAA3mAXIaLBX7k+v3f+lKkXleZ8c4JRZTZxtfmmhlcVV2ucqRjGOHHF2YIAEEUEFqKmcn3+XwvfmHh+0cIfTjSq7CaJuGpoVXG1Qpm9p0ka6xxzVf1FAgCigsBCVFWuz+9R+MbEkcXfL/iHpCziqgFVb7l6XdIoSYvcQwAA0cExWIgqf3rmkjYnD5+Y2q//s8ZUlkkirhpCVVyVKbP3i5IeJK4AoGERWIg6f3rmr21OHv5cyl/2HkVcNYDqswUfdyYRXeYeAgCILnYRokFYa5ODG9b1KHxj4rCynC+vlKloLSdUiCsPVcfVA5JekvSTpKothwCABkNgoSElVa7P71b4xsRzyxZ9fp4xwZ2JKw9VX/5mkqQJkn6RVOoeBgCIPnYRoiGV+9Iyfqk6JmvAm8bY34krj1TF1Spl9p7qXP7mJ+IKABoPgYUGZYyx/vTM31qecMWzLfru86Gk1cRVPVXF1WpnKoYnJC1mhnYAaFwEFhqFPz1zXssTrniuRd/9pklaFytxZUxFPMbVemcS0dHOJKIAgEbGMVhoVJXr8/9a9PbjF5X/OHOkMcEENXJcVb8fN3FVqcze450Z2he6hwAAGgeBhcaWVLk+v1vR24//LfDTp/c0VlzV/H8cxZWU2fthSc9J+pHdggAQO9hFiMZW7k/PXNbyhCumJO5+yO2S1hNXO1C95WqUMxXDz8QVAMQWAguxoNyfnrm81YkXPp+w++ETJf1JXNWiKq4KlNn7lRpbrjhbEABiDIGFWBHwpXVa2urECyem/GXPKUbBZcSVS1VcrVVm7w+dA9p/kFTiHgYAaHwEFmKKL63TosShd49r0XevNyTlEleO6gs3fyLpKUlfMkM7AMQuAgsxx5+euSjpmNtGt+iz70sydgNxdaB01NhCZfb+SNIoSZ+4hwAAYguBhZjkS+v0a9Ixtz2X3PuAicTVWCmz9+uSHpU02z0EABB7CCzELCeyXkzqPXi8JNuM42qss1vwe/cQAEBsYh4sxLrU4IYVfcrf+/cFFYs/OcOYirTQgmYQV+XK7P20pOcl5Ugqcg8DAMQmAgvxIMmJrHMrf/7wVEldmkFcrVVm78mSxjsXbuZsQQCIIwQW4kZww4re5e/9++LgL++fKKlrE46rlcrs/Z6kR5xJRLf8hgAAMY9jsBA3fGmdfkw65rYJvp5D3zGmcmUTjas1zjxXj0taRFwBQHwisBBXfGmdFiYdc9t40+O416VgQROLq43OlqvRkr5zDwEAxA92ESIemeCGFbuVv/fv88yvr/9TTSOupMzeT0p6WtJCZ98nACBOEViIV0l2w7Jdyt6773Tfb5NvlZQYWhCncXWfpJclLWaGdgCIf+wiRLwqN2ndliYfc/PUxF6DXpa0QfEZV8XK7P2wE1c/E1cA0DQQWIhn5Sat26/2iLFPJvYa9IUxFU5kxU1c5Suz9xRJzzhbrkrdwwAA8YnAQrwr96V1+kpHPP5Mwm5DvjSmcr3iI65WK7P3B5LGsFsQAJoejsFCk2E3LDtNH11xbnDJxwMlZcRwXOU5cTVW0hfuIQCA+EdgoUmxG5Ydoo+uuCS4ZNrxxgRbhG6PobgqUmbvSZKekPSjewgAoGlgFyGaFJPW7XMd8fgTvh5HfbD5ttiJKymz9xhnEtHF7iEAgKaDwEJTU2HSus3TEY8/ZnYd+pExlQHFTlw9KWmypN+Y5woAmjYCC01RkRNZ96v7cR9IKnAPaDDVUzG8IOk5Z7dguXsYAKBp4RgsNGVJdsOyg/XRFX/Xb+8cZow6ugdEVVVcrVVm72nO2YLfSip2DwMAND0EFpo8u2HZgfroigv12ztHGKP27uVRUX224HTnmKuv2S0IAM0HuwjR5DkHvk9U9+M+sbZqxveoqoqrdU5cjZb0JXEFAM0LgYVmwaR1+1RHPD5O3Y+bbm0UJ/WsiqtSZfZ+z9lyNds9BADQ9LGLEM1Jkt2w7K/O7sILPD+zsPpswSckTZT0g6SAexgAoOkjsNDcpNgNy3rqoytO0W/vXGeMWrkHRKQ6ru6U9JqkX7i2IAA0XwQWmqMku2FZV310xQj99s7fjVEn94CwVMXVBmfL1QuSljIVAwA0bxyDheao3KR1+9U58H2qtcp1D6izqrhapczer0gaJ+lX4goAQGChuQqatG4/64jHx6v7ca9bq2XuATtUHVfvO9cWzJVU4R4GAGh+CCw0ayat2/c64vHR6n7cS9ZqhXt5raqnYvjAiasc9xAAQPPFMVhA1WSkO+mjK87Wb+88YIwS3cu3UBVXFcrsPcmJq2/dQwAAzRtbsICqLVn5OuLxd9T9uLu3+zdH9dmCkyVNYssVAGBbCCygStCkdcvVEY//T92P+9BalbgHOHFlldl7rqSXJS1gnisAwLYQWEC1cpPWbbGOePwhdT/uZ2trzGNVvVtwpaRRkr6StGmLewMA4OAYLGBrfrth2Qh9dMXp+u2dAabLgWk6auwmZfbOkfS6Mx1D9K9pCACIWwQWsA3WWpl1P51mvxl9uNn7ss7K7L1W0gxJz7rHAgDgRmABtXB+N/zOrvSgMabSPQYAgG0hsAAAADzGQe4AAAAeI7AAAAA8RmABAAB4jMACAADwGIEFAADgMQILAADAYwQWAACAxwgsAAAAjxFYAAAAHiOwAAAAPEZgAQAAeIzAAgAA8BiBBQAA4DECCwAAwGMEFgAAgMcILAAAAI8RWAAAAB4jsAAAADxGYAEAAHiMwAIAAPAYgQUAAOAxAgsAAMBjBBYAAIDHCCwAAACPEVgAAAAeI7AAAAA8RmABAAB4jMACAADwGIEFAADgMQILAADAYwQWAACAxwgsAAAAjxFYAAAAHiOwAAAAPEZgAQAAeIzAAgAA8BiBBQAA4DECCwAAwGMEFgAAgMcILAAAAI8RWAAAAB4jsAAAADxGYAEAAHiMwAIAAPAYgQUAAOAxAgsAAMBjBBYAAIDHCCwAAACPEVgAAAAeI7AAAAA8RmABAAB4jMACAADwGIEFAADgMQILAADAYwQWAACAxwgsAAAAjxFYAAAAHiOwAAAAPEZgAQAAeIzAAgAA8BiBBQAA4DECCwAAwGMEFgAAgMcILAAAAI8RWAAAAB4jsAAAADxGYAEAAHiMwAIAAPAYgQUAAOAxAgsAAMBjBBYAAIDHCCwAAACPEVgAAAAeI7AAAAA8RmABAAB4jMACAADwGIEFAADgMQILAADAYwQWAACAxwgsAAAAjxFYAAAAHiOwAAAAPEZgAQAAeIzAAgAA8BiBBQAA4DECCwAAwGMEFgAAgMcILAAAAI8RWAAAAB4jsAAAADxGYAEAAHiMwAIAAPAYgQUAAOAxAgsAAMBjBBYAAIDHCCwAAACPEVgAAAAeI7AAAAA8RmABAAB4jMACAADwGIEFAADgMQILAADAYwQWAACAxwgsAAAAjxFYAAAAHiOwAAAAPEZgAQAAeIzAAgAA8BiBBQAA4DECCwAAwGMEFgAAgMcILAAAAI8RWAAAAB4jsAAAADxGYAEAAHiMwAIAAPAYgQUAAOAxAgsAAMBjBBYAAIDHCCwAAACPEVgAAAAeI7AAAAA8RmABAAB4jMACAADwGIEFAADgMQILAADAYwQWAACAxwgsAAAAjxFYAAAAHiOwAAAAPEZgAQAAeIzAAgAA8BiBBQAA4DECCwAAwGMEFgAAgMcILAAAAI8RWAAAAB4jsAAAADxGYAEAAHiMwAIAAPAYgQUAAOAxAgsAAMBjBBYAAIDHCCwAAACPEVgAAAAeI7AAAAA8RmABAAB4jMACAADwGIEFAADgMQILAADAYwQWAACAxwgsAAAAjxFYAAAAHiOwAAAAPEZgAQAAeIzAAgAA8BiBBQAA4DECCwAAwGMEFgAAgMcILAAAAI8RWAAAAB4jsAAAADxGYAEAAHiMwAIAAPAYgQUAAOAxAgsAAMBjBBYAAIDHCCwAAACPEVgAAAAeI7AAAAA89v9faLdv+j8ESQAAAABJRU5ErkJggg==" vertex="1" parent="1">
          <mxGeometry x="640" y="190" width="50" height="50" as="geometry" />
        </mxCell>
      </root>
    </mxGraphModel>
  </diagram>
</mxfile>
